<svg xmlns="http://www.w3.org/2000/svg" xmlns:xlink="http://www.w3.org/1999/xlink" width="50" zoomAndPan="magnify" viewBox="0 0 375 374.999991" height="50" preserveAspectRatio="xMidYMid meet" version="1.0"><path stroke-linecap="butt" transform="matrix(0.739314, 0, 0, 0.740265, 4.00218, 125.654524)" fill-opacity="1" fill="#050405" fill-rule="nonzero" stroke-linejoin="miter" d="M 206.020935 235.982023 C 206.020935 235.982023 179.909325 269.547917 169.45834 285.969402 C 169.45834 285.969402 158.26765 303.878952 179.159052 322.532535 L 191.100015 322.532535 C 191.100015 322.532535 205.28123 331.482033 191.850288 336.711368 L 178.419346 336.711368 C 178.419346 336.711368 161.897491 335.439653 142.348127 306.517365 C 138.92963 301.462165 137.138485 295.462413 137.149052 289.351848 C 137.15962 281.478823 137.698548 270.729927 140.372056 265.827755 C 140.372056 265.827755 141.967707 264.761836 141.111761 255.379638 C 140.810595 252.097452 137.841206 249.73871 134.581217 250.197794 C 123.971724 251.712243 101.759419 255.200226 93.369043 259.110354 C 93.369043 259.110354 75.457598 263.59038 68.747411 299.398926 C 68.747411 299.398926 65.767454 302.380333 76.207871 307.609669 C 76.207871 307.609669 87.398561 315.071102 74.717892 318.052509 L 64.272191 318.052509 C 64.272191 318.052509 50.090977 318.052509 50.84125 292.681526 C 50.84125 292.681526 56.811731 256.118393 62.782213 249.411547 L 92.61877 212.109659 L 92.787846 211.819433 C 96.322582 205.650823 98.657939 198.880654 99.809766 191.862475 C 101.738284 180.031829 106.551655 160.138192 117.990675 147.209967 C 117.990675 147.209967 22.489387 130.049726 6.078488 83.787787 C 6.078488 83.787787 -5.112202 62.14752 4.197522 30.518221 C 4.842123 28.349445 6.590999 26.692521 7.642438 24.68205 C 13.882383 12.708931 37.848848 -26.371248 59.041416 30.808446 C 59.041416 30.808446 60.288348 49.620334 47.861292 38.391246 C 45.922207 36.63934 44.242018 34.607762 42.778458 32.438986 C 38.990108 26.76112 28.132285 12.719484 23.588379 30.048583 C 23.340049 31.008966 23.028316 31.969348 22.679597 32.89807 C 18.912382 42.90821 0.541263 106.140425 135.130713 114.377551 C 135.130713 114.377551 195.559383 105.428053 276.139751 125.569701 C 276.139751 125.569701 312.702346 134.519199 355.969845 125.569701 C 355.969845 125.569701 380.591477 112.889486 384.321707 105.428053 C 384.321707 105.428053 397.879456 85.97767 412.93775 82.178354 C 417.037833 81.149373 420.799765 79.070303 423.578945 75.877823 L 436.470958 61.081601 C 437.358605 60.057897 439.028226 60.580303 439.202586 61.920617 L 440.940894 76.289416 C 441.411135 80.167883 443.841597 83.518668 447.37105 85.21253 C 453.389084 88.098954 462.15988 94.220073 462.651256 105.428053 C 462.651256 105.428053 470.861989 123.337603 478.322449 132.292378 C 478.322449 132.292378 489.507856 145.721902 475.342492 150.940683 C 475.342492 150.940683 467.882032 160.639491 453.700817 159.151426 C 453.700817 159.151426 426.838933 162.882142 421.618725 191.229255 C 421.618725 191.229255 413.407992 274.787806 479.067439 321.049746 C 479.067439 321.049746 501.448819 325.529772 476.832471 332.241896 L 465.64178 332.991205 C 465.64178 332.991205 380.591477 264.350243 373.870723 249.427377 C 373.870723 249.427377 357.459824 236.752439 332.838192 250.181963 C 332.838192 250.181963 303.74134 288.98247 299.271404 303.900059 L 297.781426 318.078893 C 297.781426 318.078893 315.687587 332.257726 297.781426 336.732475 C 297.781426 336.732475 286.590735 343.439322 281.370527 321.0603 C 281.370527 321.0603 291.250881 270.60856 288.95251 249.232135 C 288.519254 245.221746 285.629118 241.929006 281.719245 240.94224 C 265.931812 236.921298 221.26944 226.832005 206.020935 235.982023 Z M 206.020935 235.982023 " stroke="#050405" stroke-width="1" stroke-opacity="1" stroke-miterlimit="10"/></svg>