<svg xmlns="http://www.w3.org/2000/svg" xmlns:xlink="http://www.w3.org/1999/xlink" width="28" zoomAndPan="magnify" viewBox="0 0 375 374.999991" height="28" preserveAspectRatio="xMidYMid meet" version="1.0"><defs><clipPath id="b44e4c59e3"><path d="M 0 23.4375 L 375 23.4375 L 375 351.9375 L 0 351.9375 Z M 0 23.4375 " clip-rule="nonzero"/></clipPath></defs><g clip-path="url(#b44e4c59e3)"><path fill="#fafafa" d="M 351.5625 164.0625 L 23.4375 164.0625 C 22.667969 164.0625 21.902344 164.101562 21.140625 164.175781 C 20.375 164.25 19.617188 164.363281 18.863281 164.511719 C 18.113281 164.664062 17.367188 164.847656 16.632812 165.070312 C 15.898438 165.292969 15.175781 165.554688 14.46875 165.847656 C 13.757812 166.140625 13.066406 166.46875 12.390625 166.828125 C 11.710938 167.191406 11.054688 167.585938 10.417969 168.011719 C 9.777344 168.4375 9.164062 168.894531 8.570312 169.382812 C 7.976562 169.871094 7.40625 170.382812 6.863281 170.925781 C 6.320312 171.46875 5.808594 172.039062 5.320312 172.632812 C 4.832031 173.226562 4.375 173.839844 3.949219 174.480469 C 3.523438 175.117188 3.128906 175.773438 2.765625 176.453125 C 2.40625 177.128906 2.078125 177.820312 1.785156 178.53125 C 1.492188 179.238281 1.230469 179.960938 1.007812 180.695312 C 0.785156 181.429688 0.601562 182.175781 0.449219 182.925781 C 0.300781 183.679688 0.1875 184.4375 0.113281 185.203125 C 0.0390625 185.964844 0 186.730469 0 187.5 C 0 188.269531 0.0390625 189.035156 0.113281 189.796875 C 0.1875 190.5625 0.300781 191.320312 0.449219 192.074219 C 0.601562 192.824219 0.785156 193.570312 1.007812 194.304688 C 1.230469 195.039062 1.492188 195.761719 1.785156 196.46875 C 2.078125 197.179688 2.40625 197.871094 2.765625 198.546875 C 3.128906 199.226562 3.523438 199.882812 3.949219 200.519531 C 4.375 201.160156 4.832031 201.773438 5.320312 202.367188 C 5.808594 202.960938 6.320312 203.53125 6.863281 204.074219 C 7.40625 204.617188 7.976562 205.128906 8.570312 205.617188 C 9.164062 206.105469 9.777344 206.5625 10.417969 206.988281 C 11.054688 207.414062 11.710938 207.808594 12.390625 208.171875 C 13.066406 208.53125 13.757812 208.859375 14.46875 209.152344 C 15.175781 209.445312 15.898438 209.707031 16.632812 209.929688 C 17.367188 210.152344 18.113281 210.335938 18.863281 210.488281 C 19.617188 210.636719 20.375 210.75 21.140625 210.824219 C 21.902344 210.898438 22.667969 210.9375 23.4375 210.9375 L 351.5625 210.9375 C 352.332031 210.9375 353.097656 210.898438 353.859375 210.824219 C 354.625 210.75 355.382812 210.636719 356.136719 210.488281 C 356.886719 210.335938 357.632812 210.152344 358.367188 209.929688 C 359.101562 209.707031 359.824219 209.445312 360.53125 209.152344 C 361.242188 208.859375 361.933594 208.53125 362.609375 208.171875 C 363.289062 207.808594 363.945312 207.414062 364.582031 206.988281 C 365.222656 206.5625 365.835938 206.105469 366.429688 205.617188 C 367.023438 205.128906 367.59375 204.617188 368.136719 204.074219 C 368.679688 203.53125 369.191406 202.960938 369.679688 202.367188 C 370.167969 201.773438 370.625 201.160156 371.050781 200.519531 C 371.476562 199.882812 371.871094 199.226562 372.234375 198.546875 C 372.59375 197.871094 372.921875 197.179688 373.214844 196.46875 C 373.507812 195.761719 373.769531 195.039062 373.992188 194.304688 C 374.214844 193.570312 374.398438 192.824219 374.550781 192.074219 C 374.699219 191.320312 374.8125 190.5625 374.886719 189.796875 C 374.960938 189.035156 375 188.269531 375 187.5 C 375 186.730469 374.960938 185.964844 374.886719 185.203125 C 374.8125 184.4375 374.699219 183.679688 374.550781 182.925781 C 374.398438 182.175781 374.214844 181.429688 373.992188 180.695312 C 373.769531 179.960938 373.507812 179.238281 373.214844 178.53125 C 372.921875 177.820312 372.59375 177.128906 372.234375 176.453125 C 371.871094 175.773438 371.476562 175.117188 371.050781 174.480469 C 370.625 173.839844 370.167969 173.226562 369.679688 172.632812 C 369.191406 172.039062 368.679688 171.46875 368.136719 170.925781 C 367.59375 170.382812 367.023438 169.871094 366.429688 169.382812 C 365.835938 168.894531 365.222656 168.4375 364.582031 168.011719 C 363.945312 167.585938 363.289062 167.191406 362.609375 166.828125 C 361.933594 166.46875 361.242188 166.140625 360.53125 165.847656 C 359.824219 165.554688 359.101562 165.292969 358.367188 165.070312 C 357.632812 164.847656 356.886719 164.664062 356.136719 164.511719 C 355.382812 164.363281 354.625 164.25 353.859375 164.175781 C 353.097656 164.101562 352.332031 164.0625 351.5625 164.0625 Z M 351.5625 304.6875 L 23.4375 304.6875 C 22.667969 304.6875 21.902344 304.726562 21.140625 304.800781 C 20.375 304.875 19.617188 304.988281 18.863281 305.136719 C 18.113281 305.289062 17.367188 305.472656 16.632812 305.695312 C 15.898438 305.917969 15.175781 306.179688 14.46875 306.472656 C 13.757812 306.765625 13.066406 307.09375 12.390625 307.453125 C 11.710938 307.816406 11.054688 308.210938 10.417969 308.636719 C 9.777344 309.0625 9.164062 309.519531 8.570312 310.007812 C 7.976562 310.496094 7.40625 311.007812 6.863281 311.550781 C 6.320312 312.09375 5.808594 312.664062 5.320312 313.257812 C 4.832031 313.851562 4.375 314.464844 3.949219 315.105469 C 3.523438 315.742188 3.128906 316.398438 2.765625 317.078125 C 2.40625 317.753906 2.078125 318.445312 1.785156 319.15625 C 1.492188 319.863281 1.230469 320.585938 1.007812 321.320312 C 0.785156 322.054688 0.601562 322.800781 0.449219 323.550781 C 0.300781 324.304688 0.1875 325.0625 0.113281 325.828125 C 0.0390625 326.589844 0 327.355469 0 328.125 C 0 328.894531 0.0390625 329.660156 0.113281 330.421875 C 0.1875 331.1875 0.300781 331.945312 0.449219 332.699219 C 0.601562 333.449219 0.785156 334.195312 1.007812 334.929688 C 1.230469 335.664062 1.492188 336.386719 1.785156 337.09375 C 2.078125 337.804688 2.40625 338.496094 2.765625 339.171875 C 3.128906 339.851562 3.523438 340.507812 3.949219 341.144531 C 4.375 341.785156 4.832031 342.398438 5.320312 342.992188 C 5.808594 343.585938 6.320312 344.15625 6.863281 344.699219 C 7.40625 345.242188 7.976562 345.753906 8.570312 346.242188 C 9.164062 346.730469 9.777344 347.1875 10.417969 347.613281 C 11.054688 348.039062 11.710938 348.433594 12.390625 348.796875 C 13.066406 349.15625 13.757812 349.484375 14.46875 349.777344 C 15.175781 350.070312 15.898438 350.332031 16.632812 350.554688 C 17.367188 350.777344 18.113281 350.960938 18.863281 351.113281 C 19.617188 351.261719 20.375 351.375 21.140625 351.449219 C 21.902344 351.523438 22.667969 351.5625 23.4375 351.5625 L 351.5625 351.5625 C 352.332031 351.5625 353.097656 351.523438 353.859375 351.449219 C 354.625 351.375 355.382812 351.261719 356.136719 351.113281 C 356.886719 350.960938 357.632812 350.777344 358.367188 350.554688 C 359.101562 350.332031 359.824219 350.070312 360.53125 349.777344 C 361.242188 349.484375 361.933594 349.15625 362.609375 348.796875 C 363.289062 348.433594 363.945312 348.039062 364.582031 347.613281 C 365.222656 347.1875 365.835938 346.730469 366.429688 346.242188 C 367.023438 345.753906 367.59375 345.242188 368.136719 344.699219 C 368.679688 344.15625 369.191406 343.585938 369.679688 342.992188 C 370.167969 342.398438 370.625 341.785156 371.050781 341.144531 C 371.476562 340.507812 371.871094 339.851562 372.234375 339.171875 C 372.59375 338.496094 372.921875 337.804688 373.214844 337.09375 C 373.507812 336.386719 373.769531 335.664062 373.992188 334.929688 C 374.214844 334.195312 374.398438 333.449219 374.550781 332.699219 C 374.699219 331.945312 374.8125 331.1875 374.886719 330.421875 C 374.960938 329.660156 375 328.894531 375 328.125 C 375 327.355469 374.960938 326.589844 374.886719 325.828125 C 374.8125 325.0625 374.699219 324.304688 374.550781 323.550781 C 374.398438 322.800781 374.214844 322.054688 373.992188 321.320312 C 373.769531 320.585938 373.507812 319.863281 373.214844 319.15625 C 372.921875 318.445312 372.59375 317.753906 372.234375 317.078125 C 371.871094 316.398438 371.476562 315.742188 371.050781 315.105469 C 370.625 314.464844 370.167969 313.851562 369.679688 313.257812 C 369.191406 312.664062 368.679688 312.09375 368.136719 311.550781 C 367.59375 311.007812 367.023438 310.496094 366.429688 310.007812 C 365.835938 309.519531 365.222656 309.0625 364.582031 308.636719 C 363.945312 308.210938 363.289062 307.816406 362.609375 307.453125 C 361.933594 307.09375 361.242188 306.765625 360.53125 306.472656 C 359.824219 306.179688 359.101562 305.917969 358.367188 305.695312 C 357.632812 305.472656 356.886719 305.289062 356.136719 305.136719 C 355.382812 304.988281 354.625 304.875 353.859375 304.800781 C 353.097656 304.726562 352.332031 304.6875 351.5625 304.6875 Z M 23.4375 70.3125 L 351.5625 70.3125 C 352.332031 70.3125 353.097656 70.273438 353.859375 70.199219 C 354.625 70.125 355.382812 70.011719 356.136719 69.863281 C 356.886719 69.710938 357.632812 69.527344 358.367188 69.304688 C 359.101562 69.082031 359.824219 68.820312 360.53125 68.527344 C 361.242188 68.234375 361.933594 67.90625 362.609375 67.546875 C 363.289062 67.183594 363.945312 66.789062 364.582031 66.363281 C 365.222656 65.9375 365.835938 65.480469 366.429688 64.992188 C 367.023438 64.503906 367.59375 63.992188 368.136719 63.449219 C 368.679688 62.90625 369.191406 62.335938 369.679688 61.742188 C 370.167969 61.148438 370.625 60.535156 371.050781 59.894531 C 371.476562 59.257812 371.871094 58.601562 372.234375 57.921875 C 372.59375 57.246094 372.921875 56.554688 373.214844 55.84375 C 373.507812 55.136719 373.769531 54.414062 373.992188 53.679688 C 374.214844 52.945312 374.398438 52.199219 374.550781 51.449219 C 374.699219 50.695312 374.8125 49.9375 374.886719 49.171875 C 374.960938 48.410156 375 47.644531 375 46.875 C 375 46.105469 374.960938 45.339844 374.886719 44.578125 C 374.8125 43.8125 374.699219 43.054688 374.550781 42.300781 C 374.398438 41.550781 374.214844 40.804688 373.992188 40.070312 C 373.769531 39.335938 373.507812 38.613281 373.214844 37.90625 C 372.921875 37.195312 372.59375 36.503906 372.234375 35.828125 C 371.871094 35.148438 371.476562 34.492188 371.050781 33.855469 C 370.625 33.214844 370.167969 32.601562 369.679688 32.007812 C 369.191406 31.414062 368.679688 30.84375 368.136719 30.300781 C 367.59375 29.757812 367.023438 29.246094 366.429688 28.757812 C 365.835938 28.269531 365.222656 27.8125 364.582031 27.386719 C 363.945312 26.960938 363.289062 26.566406 362.609375 26.203125 C 361.933594 25.84375 361.242188 25.515625 360.53125 25.222656 C 359.824219 24.929688 359.101562 24.667969 358.367188 24.445312 C 357.632812 24.222656 356.886719 24.039062 356.136719 23.886719 C 355.382812 23.738281 354.625 23.625 353.859375 23.550781 C 353.097656 23.476562 352.332031 23.4375 351.5625 23.4375 L 23.4375 23.4375 C 22.667969 23.4375 21.902344 23.476562 21.140625 23.550781 C 20.375 23.625 19.617188 23.738281 18.863281 23.886719 C 18.113281 24.039062 17.367188 24.222656 16.632812 24.445312 C 15.898438 24.667969 15.175781 24.929688 14.46875 25.222656 C 13.757812 25.515625 13.066406 25.84375 12.390625 26.203125 C 11.710938 26.566406 11.054688 26.960938 10.417969 27.386719 C 9.777344 27.8125 9.164062 28.269531 8.570312 28.757812 C 7.976562 29.246094 7.40625 29.757812 6.863281 30.300781 C 6.320312 30.84375 5.808594 31.414062 5.320312 32.007812 C 4.832031 32.601562 4.375 33.214844 3.949219 33.855469 C 3.523438 34.492188 3.128906 35.148438 2.765625 35.828125 C 2.40625 36.503906 2.078125 37.195312 1.785156 37.90625 C 1.492188 38.613281 1.230469 39.335938 1.007812 40.070312 C 0.785156 40.804688 0.601562 41.550781 0.449219 42.300781 C 0.300781 43.054688 0.1875 43.8125 0.113281 44.578125 C 0.0390625 45.339844 0 46.105469 0 46.875 C 0 47.644531 0.0390625 48.410156 0.113281 49.171875 C 0.1875 49.9375 0.300781 50.695312 0.449219 51.449219 C 0.601562 52.199219 0.785156 52.945312 1.007812 53.679688 C 1.230469 54.414062 1.492188 55.136719 1.785156 55.84375 C 2.078125 56.554688 2.40625 57.246094 2.765625 57.921875 C 3.128906 58.601562 3.523438 59.257812 3.949219 59.894531 C 4.375 60.535156 4.832031 61.148438 5.320312 61.742188 C 5.808594 62.335938 6.320312 62.90625 6.863281 63.449219 C 7.40625 63.992188 7.976562 64.503906 8.570312 64.992188 C 9.164062 65.480469 9.777344 65.9375 10.417969 66.363281 C 11.054688 66.789062 11.710938 67.183594 12.390625 67.546875 C 13.066406 67.90625 13.757812 68.234375 14.46875 68.527344 C 15.175781 68.820312 15.898438 69.082031 16.632812 69.304688 C 17.367188 69.527344 18.113281 69.710938 18.863281 69.863281 C 19.617188 70.011719 20.375 70.125 21.140625 70.199219 C 21.902344 70.273438 22.667969 70.3125 23.4375 70.3125 Z M 23.4375 70.3125 " fill-opacity="1" fill-rule="nonzero"/></g></svg>