<svg xmlns="http://www.w3.org/2000/svg" xmlns:xlink="http://www.w3.org/1999/xlink" width="350" zoomAndPan="magnify" viewBox="0 0 375 374.999991" height="350" preserveAspectRatio="xMidYMid meet" version="1.0"><defs><clipPath id="b024eca71a"><path d="M 0.71875 195 L 374.96875 195 L 374.96875 315 L 0.71875 315 Z M 0.71875 195 " clip-rule="nonzero"/></clipPath><clipPath id="460182ea46"><path d="M 0.71875 202.035156 L 374.617188 202.035156 L 374.617188 323 L 0.71875 323 Z M 0.71875 202.035156 " clip-rule="nonzero"/></clipPath><clipPath id="64141a24f4"><path d="M 39.1875 321.425781 L 46.957031 321.425781 L 46.957031 326.300781 L 39.1875 326.300781 Z M 39.1875 321.425781 " clip-rule="nonzero"/></clipPath></defs><path fill="#000000" d="M 87.785156 243.355469 C 93.085938 238.519531 99.257812 234.644531 105.894531 231.902344 C 112.53125 229.164062 119.644531 227.558594 126.828125 227.246094 C 128.625 227.15625 130.441406 227.222656 132.226562 227.53125 C 134 227.84375 135.769531 228.414062 137.296875 229.429688 C 138.058594 229.9375 138.753906 230.550781 139.324219 231.273438 C 139.898438 231.992188 140.351562 232.804688 140.671875 233.664062 C 141.3125 235.390625 141.433594 237.257812 141.292969 239.0625 C 141 242.683594 139.828125 246.183594 138.167969 249.386719 C 136.507812 252.597656 134.390625 255.550781 132.050781 258.285156 C 129.699219 261.015625 127.121094 263.542969 124.425781 265.921875 C 121.726562 268.300781 118.894531 270.527344 115.988281 272.644531 C 113.082031 274.757812 110.09375 276.757812 107.050781 278.671875 C 104 280.578125 100.867188 282.351562 97.648438 283.957031 C 91.210938 287.179688 84.464844 289.78125 77.527344 291.695312 C 70.585938 293.609375 63.453125 294.839844 56.265625 295.296875 C 52.667969 295.527344 49.050781 295.535156 45.453125 295.289062 C 41.851562 295.046875 38.265625 294.539062 34.746094 293.710938 C 31.226562 292.882812 27.769531 291.738281 24.492188 290.183594 C 21.214844 288.636719 18.113281 286.6875 15.351562 284.316406 C 13.96875 283.136719 12.6875 281.828125 11.488281 280.472656 C 10.296875 279.121094 9.136719 277.730469 8.0625 276.265625 C 5.910156 273.359375 4.078125 270.128906 3.046875 266.597656 C 2.785156 265.71875 2.585938 264.824219 2.414062 263.921875 C 2.261719 263.019531 2.140625 262.113281 2.078125 261.199219 C 1.945312 259.375 1.992188 257.542969 2.152344 255.730469 C 2.324219 253.921875 2.605469 252.128906 2.964844 250.355469 C 3.324219 248.578125 3.765625 246.820312 4.289062 245.085938 C 6.402344 238.148438 9.792969 231.660156 13.902344 225.734375 C 18.023438 219.792969 22.859375 214.394531 28.078125 209.433594 C 33.304688 204.46875 38.996094 199.992188 45.082031 196.121094 C 51.167969 192.253906 57.644531 189 64.375 186.410156 C 71.101562 183.824219 78.074219 181.886719 85.15625 180.558594 C 92.234375 179.226562 99.417969 178.488281 106.609375 178.246094 C 113.804688 178.003906 121.007812 178.25 128.171875 178.878906 C 135.332031 179.507812 142.460938 180.519531 149.523438 181.835938 C 163.660156 184.46875 177.546875 188.261719 191.183594 192.738281 C 204.835938 197.214844 218.230469 202.410156 231.460938 207.96875 C 238.074219 210.75 244.644531 213.628906 251.195312 216.554688 C 257.746094 219.472656 264.289062 222.398438 270.945312 225.039062 C 277.59375 227.699219 284.375 230.035156 291.300781 231.828125 C 298.222656 233.609375 305.320312 234.75 312.464844 235.007812 C 319.601562 235.257812 326.800781 234.65625 333.714844 232.8125 C 337.167969 231.914062 340.539062 230.679688 343.773438 229.160156 C 347.003906 227.632812 350.0625 225.75 352.882812 223.550781 C 358.511719 219.148438 363.222656 213.53125 366.402344 207.109375 C 367.992188 203.90625 369.191406 200.492188 369.882812 196.976562 C 370.582031 193.460938 370.757812 189.839844 370.375 186.273438 C 370.789062 189.839844 370.640625 193.46875 369.972656 196.996094 C 369.304688 200.523438 368.132812 203.953125 366.5625 207.1875 C 363.414062 213.652344 358.710938 219.332031 353.074219 223.796875 C 350.253906 226.023438 347.179688 227.945312 343.933594 229.5 C 340.6875 231.046875 337.304688 232.3125 333.828125 233.246094 C 326.875 235.136719 319.628906 235.792969 312.445312 235.585938 C 305.253906 235.363281 298.101562 234.234375 291.132812 232.472656 C 284.167969 230.695312 277.351562 228.375 270.675781 225.734375 C 263.984375 223.109375 257.421875 220.203125 250.859375 217.308594 C 244.304688 214.410156 237.726562 211.558594 231.109375 208.808594 C 217.875 203.300781 204.480469 198.171875 190.867188 193.722656 C 177.25 189.285156 163.398438 185.53125 149.324219 182.933594 C 135.253906 180.355469 120.9375 178.914062 106.648438 179.40625 C 99.511719 179.648438 92.386719 180.382812 85.371094 181.707031 C 78.359375 183.035156 71.457031 184.953125 64.800781 187.519531 C 58.144531 190.085938 51.734375 193.289062 45.710938 197.117188 C 39.691406 200.9375 34.054688 205.371094 28.875 210.273438 C 23.703125 215.191406 18.914062 220.535156 14.847656 226.386719 C 10.785156 232.234375 7.453125 238.617188 5.371094 245.417969 C 4.851562 247.117188 4.414062 248.839844 4.0625 250.578125 C 3.707031 252.320312 3.425781 254.074219 3.257812 255.835938 C 3.097656 257.59375 3.050781 259.363281 3.171875 261.117188 C 3.234375 261.996094 3.347656 262.867188 3.492188 263.730469 C 3.652344 264.597656 3.84375 265.453125 4.09375 266.292969 C 5.070312 269.664062 6.824219 272.785156 8.925781 275.632812 C 9.96875 277.066406 11.101562 278.433594 12.28125 279.773438 C 13.457031 281.109375 14.6875 282.363281 16.03125 283.523438 C 18.710938 285.832031 21.730469 287.734375 24.929688 289.253906 C 28.132812 290.785156 31.519531 291.914062 34.976562 292.734375 C 38.433594 293.5625 41.96875 294.074219 45.523438 294.328125 C 49.074219 294.585938 52.644531 294.59375 56.207031 294.378906 C 63.332031 293.945312 70.410156 292.757812 77.304688 290.882812 C 84.199219 289.015625 90.90625 286.457031 97.308594 283.277344 C 103.71875 280.117188 109.773438 276.257812 115.59375 272.097656 C 118.496094 270.003906 121.3125 267.800781 124.007812 265.449219 C 126.699219 263.097656 129.261719 260.597656 131.601562 257.898438 C 133.9375 255.207031 136.050781 252.300781 137.707031 249.144531 C 139.359375 246 140.53125 242.570312 140.839844 239.027344 C 140.988281 237.265625 140.878906 235.464844 140.277344 233.808594 C 139.976562 232.988281 139.550781 232.210938 139.007812 231.523438 C 138.46875 230.835938 137.808594 230.242188 137.082031 229.75 C 135.621094 228.765625 133.90625 228.195312 132.164062 227.878906 C 130.417969 227.5625 128.625 227.488281 126.839844 227.5625 C 119.695312 227.828125 112.597656 229.386719 105.960938 232.070312 C 99.320312 234.753906 93.128906 238.566406 87.785156 243.355469 " fill-opacity="1" fill-rule="nonzero"/><path fill="#000000" d="M 87.484375 251.070312 C 92.976562 246.414062 99.304688 242.761719 106.058594 240.261719 C 112.816406 237.769531 120.007812 236.429688 127.21875 236.394531 C 129.023438 236.382812 130.835938 236.476562 132.621094 236.78125 C 134.398438 237.097656 136.1875 237.617188 137.714844 238.667969 C 138.464844 239.199219 139.144531 239.859375 139.621094 240.660156 L 139.800781 240.960938 L 139.949219 241.277344 C 140.058594 241.480469 140.121094 241.707031 140.207031 241.921875 C 140.277344 242.144531 140.34375 242.367188 140.390625 242.589844 C 140.429688 242.820312 140.492188 243.046875 140.507812 243.277344 C 140.535156 243.503906 140.5625 243.734375 140.5625 243.964844 L 140.578125 244.308594 L 140.554688 245 L 140.523438 245.335938 L 140.464844 246.015625 C 140.417969 246.460938 140.363281 246.914062 140.296875 247.363281 C 140.222656 247.808594 140.164062 248.257812 140.070312 248.703125 C 139.40625 252.265625 138.128906 255.699219 136.433594 258.894531 C 136.003906 259.691406 135.558594 260.480469 135.078125 261.246094 C 134.84375 261.636719 134.589844 262.011719 134.339844 262.386719 L 133.585938 263.515625 L 132.78125 264.605469 C 132.515625 264.96875 132.253906 265.339844 131.964844 265.6875 C 131.394531 266.390625 130.847656 267.105469 130.238281 267.78125 L 129.347656 268.800781 L 128.417969 269.785156 C 127.808594 270.453125 127.152344 271.078125 126.511719 271.714844 C 126.195312 272.039062 125.859375 272.339844 125.527344 272.644531 L 124.535156 273.566406 C 123.851562 274.15625 123.179688 274.757812 122.488281 275.335938 C 119.714844 277.652344 116.800781 279.789062 113.816406 281.808594 C 110.824219 283.816406 107.765625 285.71875 104.632812 287.515625 L 102.261719 288.824219 C 101.46875 289.253906 100.660156 289.648438 99.859375 290.0625 C 99.457031 290.269531 99.054688 290.480469 98.652344 290.675781 L 97.429688 291.253906 L 96.203125 291.832031 L 95.59375 292.121094 L 94.972656 292.386719 C 81.789062 298.261719 67.445312 301.570312 52.992188 301.84375 C 45.769531 301.9375 38.492188 301.175781 31.523438 299.128906 C 28.042969 298.113281 24.65625 296.742188 21.472656 294.980469 C 18.289062 293.226562 15.304688 291.070312 12.714844 288.496094 C 12.378906 288.183594 12.078125 287.84375 11.761719 287.515625 C 11.441406 287.191406 11.148438 286.839844 10.84375 286.5 L 10.398438 285.984375 L 9.96875 285.449219 L 9.121094 284.386719 C 8.828125 284.039062 8.578125 283.65625 8.308594 283.289062 L 7.515625 282.179688 C 7.261719 281.800781 7.019531 281.414062 6.777344 281.03125 L 6.410156 280.453125 C 6.285156 280.261719 6.164062 280.070312 6.058594 279.867188 C 4.230469 276.714844 2.828125 273.28125 2.082031 269.699219 C 1.351562 266.113281 1.21875 262.417969 1.578125 258.792969 C 1.957031 255.167969 2.75 251.605469 3.847656 248.144531 C 6.058594 241.210938 9.570312 234.757812 13.824219 228.902344 C 15.957031 225.976562 18.273438 223.1875 20.722656 220.523438 C 21.339844 219.863281 21.949219 219.199219 22.589844 218.554688 L 23.535156 217.582031 C 23.851562 217.261719 24.183594 216.953125 24.503906 216.636719 L 26.449219 214.75 C 27.109375 214.132812 27.785156 213.53125 28.453125 212.925781 L 29.457031 212.015625 C 29.792969 211.714844 30.144531 211.425781 30.488281 211.132812 L 32.554688 209.382812 L 34.683594 207.699219 C 35.039062 207.421875 35.390625 207.136719 35.75 206.863281 L 36.84375 206.058594 C 39.730469 203.882812 42.761719 201.90625 45.855469 200.03125 L 48.195312 198.660156 L 50.578125 197.363281 C 50.972656 197.152344 51.367188 196.925781 51.769531 196.722656 L 54.199219 195.515625 L 54.804688 195.214844 L 55.421875 194.929688 L 57.890625 193.800781 C 58.714844 193.433594 59.554688 193.101562 60.386719 192.746094 C 60.804688 192.578125 61.222656 192.398438 61.640625 192.230469 L 62.910156 191.75 L 64.175781 191.269531 C 64.597656 191.109375 65.019531 190.949219 65.449219 190.808594 L 68.015625 189.929688 C 68.875 189.644531 69.742188 189.394531 70.605469 189.125 C 71.035156 188.996094 71.46875 188.859375 71.902344 188.730469 L 74.515625 188.019531 C 74.953125 187.902344 75.390625 187.78125 75.832031 187.679688 L 78.464844 187.046875 C 79.347656 186.847656 80.234375 186.675781 81.117188 186.488281 C 81.558594 186.398438 82 186.296875 82.445312 186.21875 L 83.777344 185.976562 L 85.113281 185.742188 L 85.777344 185.621094 L 86.449219 185.519531 L 89.128906 185.121094 C 90.023438 185 90.921875 184.898438 91.816406 184.789062 C 92.265625 184.734375 92.710938 184.675781 93.164062 184.632812 L 95.859375 184.378906 C 96.304688 184.332031 96.757812 184.292969 97.207031 184.265625 L 99.910156 184.082031 C 100.8125 184.03125 101.710938 184.003906 102.613281 183.957031 L 103.96875 183.90625 L 105.320312 183.878906 C 106.222656 183.871094 107.125 183.832031 108.027344 183.84375 C 122.476562 183.796875 136.863281 185.71875 150.929688 188.824219 C 165.007812 191.941406 178.800781 196.222656 192.320312 201.1875 C 205.839844 206.152344 219.085938 211.828125 232.144531 217.878906 C 238.675781 220.902344 245.160156 224.023438 251.617188 227.195312 C 258.078125 230.359375 264.527344 233.535156 271.097656 236.4375 C 274.378906 237.894531 277.695312 239.277344 281.050781 240.550781 C 284.40625 241.820312 287.796875 243.003906 291.234375 244.027344 C 298.105469 246.0625 305.167969 247.515625 312.324219 248.035156 C 319.464844 248.605469 326.695312 248.21875 333.703125 246.691406 L 336.3125 246.054688 C 337.175781 245.8125 338.027344 245.542969 338.886719 245.289062 L 339.53125 245.089844 C 339.742188 245.019531 339.953125 244.9375 340.160156 244.863281 L 341.425781 244.402344 C 341.847656 244.25 342.269531 244.101562 342.6875 243.941406 L 343.921875 243.40625 C 347.234375 242.039062 350.371094 240.257812 353.277344 238.160156 C 356.195312 236.078125 358.863281 233.648438 361.265625 230.988281 C 363.640625 228.300781 365.761719 225.375 367.460938 222.210938 C 368.316406 220.632812 369.082031 219.003906 369.734375 217.328125 C 370.375 215.65625 370.914062 213.933594 371.332031 212.1875 C 371.425781 211.75 371.539062 211.3125 371.617188 210.871094 L 371.859375 209.546875 L 372.046875 208.210938 C 372.113281 207.765625 372.132812 207.316406 372.179688 206.871094 C 372.328125 205.078125 372.347656 203.273438 372.226562 201.480469 C 372.359375 203.273438 372.359375 205.078125 372.226562 206.875 C 372.183594 207.320312 372.164062 207.769531 372.101562 208.21875 L 371.925781 209.554688 L 371.695312 210.886719 C 371.621094 211.332031 371.507812 211.765625 371.417969 212.207031 C 371.015625 213.964844 370.492188 215.691406 369.859375 217.378906 C 369.222656 219.066406 368.464844 220.703125 367.617188 222.292969 C 366.773438 223.886719 365.832031 225.425781 364.792969 226.898438 C 363.757812 228.375 362.640625 229.792969 361.453125 231.152344 C 359.054688 233.84375 356.386719 236.300781 353.460938 238.417969 C 350.546875 240.542969 347.398438 242.359375 344.074219 243.757812 L 342.835938 244.300781 C 342.414062 244.46875 341.988281 244.617188 341.566406 244.78125 L 340.296875 245.25 C 340.085938 245.324219 339.875 245.410156 339.660156 245.484375 L 339.015625 245.683594 C 338.152344 245.941406 337.292969 246.222656 336.425781 246.472656 L 333.800781 247.128906 C 326.757812 248.710938 319.472656 249.148438 312.28125 248.617188 C 305.074219 248.132812 297.960938 246.6875 291.042969 244.667969 C 287.582031 243.652344 284.175781 242.476562 280.800781 241.214844 C 277.425781 239.949219 274.09375 238.574219 270.796875 237.125 C 264.195312 234.238281 257.726562 231.082031 251.253906 227.941406 C 244.785156 224.800781 238.296875 221.699219 231.761719 218.710938 C 225.230469 215.710938 218.652344 212.8125 212.019531 210.042969 C 205.390625 207.269531 198.707031 204.632812 191.960938 202.164062 C 178.46875 197.238281 164.714844 193 150.6875 189.925781 L 148.058594 189.359375 L 145.421875 188.835938 C 144.539062 188.65625 143.660156 188.488281 142.773438 188.332031 C 141.890625 188.175781 141.011719 188 140.128906 187.855469 C 136.59375 187.246094 133.042969 186.734375 129.484375 186.292969 C 125.921875 185.882812 122.355469 185.542969 118.777344 185.320312 C 115.195312 185.113281 111.613281 184.984375 108.03125 185.003906 C 107.136719 184.996094 106.242188 185.03125 105.34375 185.042969 L 104 185.070312 L 102.660156 185.125 C 101.769531 185.164062 100.871094 185.195312 99.976562 185.246094 L 97.296875 185.429688 C 96.851562 185.457031 96.40625 185.496094 95.960938 185.542969 L 94.625 185.667969 L 93.285156 185.796875 C 92.839844 185.839844 92.394531 185.902344 91.953125 185.949219 C 91.0625 186.0625 90.175781 186.160156 89.289062 186.285156 L 86.632812 186.683594 L 85.96875 186.78125 L 85.308594 186.898438 L 82.664062 187.375 C 82.226562 187.453125 81.789062 187.554688 81.351562 187.640625 C 80.476562 187.828125 79.597656 188 78.726562 188.203125 L 76.117188 188.828125 C 75.679688 188.929688 75.25 189.042969 74.816406 189.164062 L 73.523438 189.519531 L 72.230469 189.871094 C 71.800781 189.996094 71.375 190.132812 70.945312 190.261719 C 70.09375 190.527344 69.234375 190.777344 68.382812 191.058594 L 65.847656 191.925781 C 65.421875 192.066406 65.003906 192.226562 64.585938 192.382812 L 62.074219 193.332031 C 61.660156 193.496094 61.25 193.675781 60.835938 193.84375 C 60.011719 194.191406 59.183594 194.523438 58.363281 194.886719 L 55.921875 196 L 55.316406 196.277344 L 54.714844 196.574219 L 53.511719 197.171875 L 52.3125 197.773438 C 51.914062 197.96875 51.523438 198.191406 51.128906 198.402344 L 48.769531 199.683594 L 46.457031 201.035156 C 43.398438 202.890625 40.394531 204.84375 37.535156 206.996094 L 36.457031 207.789062 C 36.097656 208.058594 35.753906 208.339844 35.398438 208.617188 L 33.292969 210.28125 L 31.242188 212.015625 C 30.902344 212.304688 30.554688 212.589844 30.222656 212.886719 L 29.226562 213.785156 C 28.566406 214.390625 27.898438 214.980469 27.242188 215.59375 L 25.3125 217.460938 C 24.992188 217.773438 24.664062 218.082031 24.351562 218.398438 L 23.414062 219.359375 C 22.785156 219.996094 22.179688 220.652344 21.570312 221.308594 C 19.144531 223.9375 16.855469 226.691406 14.753906 229.578125 C 10.550781 235.351562 7.097656 241.695312 4.917969 248.484375 C 3.835938 251.878906 3.050781 255.375 2.671875 258.902344 C 2.316406 262.433594 2.441406 266.011719 3.136719 269.480469 C 3.855469 272.945312 5.199219 276.261719 6.972656 279.332031 C 7.078125 279.527344 7.191406 279.71875 7.3125 279.902344 L 7.667969 280.464844 C 7.910156 280.839844 8.140625 281.21875 8.382812 281.585938 L 9.160156 282.671875 C 9.421875 283.03125 9.664062 283.40625 9.949219 283.746094 L 10.785156 284.789062 L 11.195312 285.3125 L 11.632812 285.816406 C 11.925781 286.148438 12.210938 286.488281 12.519531 286.800781 C 12.828125 287.121094 13.121094 287.457031 13.445312 287.761719 C 15.953125 290.265625 18.855469 292.367188 21.960938 294.09375 C 25.070312 295.816406 28.386719 297.167969 31.804688 298.179688 C 38.644531 300.21875 45.832031 300.996094 52.980469 300.929688 C 53.875 300.921875 54.769531 300.902344 55.664062 300.851562 C 56.558594 300.808594 57.449219 300.773438 58.34375 300.71875 L 61.023438 300.5 L 61.691406 300.445312 L 62.355469 300.367188 L 63.691406 300.214844 C 67.246094 299.789062 70.785156 299.210938 74.277344 298.410156 C 81.273438 296.859375 88.105469 294.589844 94.667969 291.707031 L 95.285156 291.441406 L 95.894531 291.15625 L 97.113281 290.589844 L 98.332031 290.015625 C 98.738281 289.828125 99.132812 289.613281 99.535156 289.414062 C 100.332031 289.007812 101.136719 288.617188 101.925781 288.191406 L 104.285156 286.898438 C 107.398438 285.128906 110.457031 283.242188 113.445312 281.253906 C 116.425781 279.257812 119.324219 277.140625 122.085938 274.855469 C 124.851562 272.578125 127.4375 270.085938 129.804688 267.398438 C 130.40625 266.738281 130.957031 266.03125 131.523438 265.339844 C 131.8125 265 132.070312 264.632812 132.339844 264.277344 L 133.140625 263.199219 L 133.894531 262.085938 C 134.140625 261.71875 134.398438 261.351562 134.628906 260.96875 C 135.109375 260.214844 135.550781 259.4375 135.980469 258.652344 C 137.675781 255.507812 138.957031 252.128906 139.636719 248.617188 C 139.730469 248.183594 139.789062 247.738281 139.867188 247.300781 C 139.929688 246.855469 139.988281 246.414062 140.039062 245.96875 C 140.128906 245.078125 140.207031 244.195312 140.101562 243.324219 C 140.082031 243.105469 140.027344 242.894531 139.992188 242.679688 C 139.949219 242.46875 139.882812 242.257812 139.824219 242.046875 C 139.742188 241.847656 139.6875 241.636719 139.585938 241.441406 L 139.445312 241.148438 L 139.285156 240.867188 C 139.230469 240.769531 139.171875 240.679688 139.105469 240.589844 L 138.917969 240.324219 C 138.777344 240.160156 138.648438 239.984375 138.492188 239.832031 C 138.195312 239.511719 137.847656 239.238281 137.5 238.980469 C 136.050781 237.972656 134.308594 237.441406 132.5625 237.125 C 130.804688 236.8125 129.011719 236.703125 127.222656 236.703125 C 120.046875 236.695312 112.875 237.988281 106.121094 240.433594 C 99.367188 242.867188 93.011719 246.460938 87.484375 251.070312 " fill-opacity="1" fill-rule="nonzero"/><path fill="#000000" d="M 87.410156 258.773438 C 93.085938 254.304688 99.570312 250.875 106.441406 248.625 C 113.316406 246.378906 120.582031 245.3125 127.820312 245.558594 C 129.628906 245.625 131.441406 245.808594 133.21875 246.210938 C 134.984375 246.621094 136.746094 247.238281 138.246094 248.324219 C 138.992188 248.867188 139.65625 249.535156 140.15625 250.324219 C 140.664062 251.105469 140.992188 252 141.136719 252.914062 C 141.210938 253.371094 141.246094 253.835938 141.246094 254.296875 C 141.246094 254.761719 141.195312 255.210938 141.167969 255.664062 C 141.128906 256.121094 141.066406 256.574219 141.011719 257.027344 C 140.933594 257.472656 140.878906 257.925781 140.777344 258.371094 C 140.074219 261.953125 138.609375 265.347656 136.722656 268.449219 C 134.816406 271.546875 132.507812 274.375 129.992188 276.988281 C 124.941406 282.214844 119.019531 286.496094 112.875 290.300781 C 111.335938 291.253906 109.78125 292.179688 108.210938 293.078125 C 106.644531 293.976562 105.0625 294.859375 103.457031 295.699219 C 101.851562 296.539062 100.226562 297.335938 98.582031 298.101562 C 96.9375 298.859375 95.273438 299.574219 93.597656 300.257812 C 80.167969 305.691406 65.660156 308.527344 51.144531 308.253906 C 43.898438 308.085938 36.621094 307.0625 29.707031 304.75 C 26.25 303.601562 22.902344 302.097656 19.773438 300.214844 C 16.648438 298.328125 13.738281 296.050781 11.242188 293.363281 C 8.746094 290.683594 6.648438 287.628906 5.070312 284.320312 C 3.492188 281.011719 2.394531 277.488281 1.746094 273.890625 C 1.089844 270.292969 0.894531 266.617188 1.097656 262.972656 C 1.300781 259.324219 1.90625 255.703125 2.898438 252.183594 C 3.890625 248.667969 5.292969 245.269531 7.042969 242.0625 C 8.789062 238.851562 10.886719 235.847656 13.175781 233.019531 C 15.46875 230.195312 17.960938 227.546875 20.535156 224.996094 C 21.824219 223.722656 23.132812 222.46875 24.457031 221.230469 C 25.113281 220.613281 25.789062 220.003906 26.453125 219.386719 C 27.132812 218.789062 27.804688 218.175781 28.492188 217.589844 C 33.980469 212.839844 39.910156 208.59375 46.199219 204.964844 C 52.484375 201.332031 59.128906 198.328125 66.003906 195.996094 C 72.878906 193.664062 79.976562 192.011719 87.15625 190.972656 C 94.335938 189.933594 101.597656 189.511719 108.84375 189.605469 C 116.089844 189.691406 123.324219 190.289062 130.496094 191.28125 C 137.667969 192.277344 144.78125 193.671875 151.816406 195.378906 C 165.882812 198.800781 179.628906 203.425781 193.0625 208.773438 C 206.503906 214.113281 219.632812 220.199219 232.539062 226.699219 C 238.996094 229.945312 245.386719 233.316406 251.757812 236.714844 C 258.136719 240.101562 264.527344 243.445312 271.046875 246.539062 C 274.296875 248.089844 277.59375 249.554688 280.921875 250.9375 C 284.253906 252.316406 287.617188 253.613281 291.03125 254.753906 C 297.839844 257.09375 304.875 258.800781 312.027344 259.636719 C 319.167969 260.476562 326.441406 260.417969 333.53125 259.148438 C 337.066406 258.5 340.554688 257.566406 343.917969 256.28125 C 347.289062 255.019531 350.511719 253.367188 353.511719 251.386719 C 359.511719 247.417969 364.679688 242.136719 368.367188 235.9375 C 370.207031 232.839844 371.671875 229.511719 372.628906 226.03125 C 373.59375 222.554688 374.042969 218.929688 373.917969 215.320312 C 374.074219 218.925781 373.660156 222.5625 372.714844 226.054688 C 371.785156 229.550781 370.34375 232.902344 368.519531 236.027344 C 364.859375 242.277344 359.699219 247.617188 353.6875 251.648438 C 350.675781 253.660156 347.441406 255.347656 344.054688 256.636719 C 340.675781 257.949219 337.167969 258.917969 333.609375 259.589844 C 326.480469 260.910156 319.15625 261.015625 311.960938 260.214844 C 304.757812 259.410156 297.671875 257.710938 290.820312 255.386719 C 287.382812 254.253906 284 252.960938 280.652344 251.59375 C 277.308594 250.21875 273.996094 248.757812 270.726562 247.21875 C 264.179688 244.140625 257.761719 240.8125 251.371094 237.449219 C 244.984375 234.070312 238.589844 230.730469 232.132812 227.515625 C 225.671875 224.296875 219.164062 221.179688 212.589844 218.207031 C 206.019531 215.230469 199.386719 212.394531 192.679688 209.738281 C 179.269531 204.433594 165.5625 199.851562 151.550781 196.476562 C 137.554688 193.101562 123.222656 190.933594 108.828125 190.761719 C 101.636719 190.679688 94.4375 191.101562 87.324219 192.132812 C 80.214844 193.167969 73.1875 194.8125 66.386719 197.121094 C 59.582031 199.421875 53.003906 202.390625 46.78125 205.980469 C 40.558594 209.574219 34.6875 213.765625 29.25 218.464844 C 28.566406 219.050781 27.902344 219.652344 27.226562 220.25 C 26.566406 220.855469 25.902344 221.457031 25.242188 222.078125 C 23.929688 223.308594 22.625 224.546875 21.347656 225.8125 C 18.789062 228.34375 16.324219 230.960938 14.0625 233.742188 C 11.804688 236.527344 9.75 239.46875 8.042969 242.609375 C 6.332031 245.742188 4.949219 249.054688 3.976562 252.492188 C 3 255.925781 2.398438 259.46875 2.195312 263.035156 C 1.988281 266.597656 2.175781 270.191406 2.804688 273.699219 C 3.429688 277.210938 4.496094 280.644531 6.027344 283.859375 C 7.554688 287.082031 9.582031 290.046875 12.003906 292.65625 C 14.421875 295.273438 17.25 297.492188 20.296875 299.34375 C 23.351562 301.195312 26.632812 302.667969 30.019531 303.8125 C 36.808594 306.109375 43.992188 307.15625 51.167969 307.34375 C 65.542969 307.671875 79.960938 304.914062 93.320312 299.566406 C 94.988281 298.894531 96.644531 298.1875 98.277344 297.441406 C 99.914062 296.6875 101.53125 295.898438 103.132812 295.074219 C 104.730469 294.246094 106.304688 293.375 107.871094 292.480469 C 109.4375 291.589844 110.992188 290.675781 112.523438 289.734375 C 118.660156 285.972656 124.546875 281.734375 129.582031 276.585938 C 132.085938 274.015625 134.386719 271.222656 136.285156 268.179688 C 138.167969 265.132812 139.628906 261.796875 140.34375 258.285156 C 140.441406 257.847656 140.5 257.402344 140.578125 256.964844 C 140.636719 256.519531 140.699219 256.074219 140.738281 255.628906 C 140.769531 255.183594 140.824219 254.734375 140.824219 254.292969 C 140.828125 253.851562 140.796875 253.414062 140.730469 252.976562 C 140.597656 252.113281 140.292969 251.273438 139.824219 250.53125 C 139.359375 249.792969 138.730469 249.15625 138.019531 248.632812 C 136.589844 247.582031 134.875 246.960938 133.140625 246.550781 C 131.398438 246.140625 129.601562 245.945312 127.808594 245.871094 C 120.609375 245.578125 113.367188 246.597656 106.496094 248.792969 C 99.628906 250.980469 93.125 254.351562 87.410156 258.773438 " fill-opacity="1" fill-rule="nonzero"/><g clip-path="url(#b024eca71a)"><path fill="#000000" d="M 86.941406 265.976562 C 92.710938 261.578125 99.277344 258.234375 106.214844 256.089844 C 113.148438 253.945312 120.460938 253.003906 127.722656 253.382812 C 129.542969 253.480469 131.355469 253.726562 133.128906 254.171875 C 134.011719 254.398438 134.886719 254.683594 135.730469 255.039062 C 136.574219 255.394531 137.390625 255.835938 138.140625 256.378906 C 138.886719 256.921875 139.554688 257.582031 140.085938 258.351562 C 140.625 259.117188 140.976562 260 141.171875 260.910156 C 141.230469 261.136719 141.246094 261.371094 141.28125 261.597656 C 141.3125 261.832031 141.320312 262.066406 141.335938 262.296875 C 141.328125 262.753906 141.332031 263.214844 141.3125 263.675781 L 141.25 264.363281 C 141.226562 264.589844 141.214844 264.820312 141.171875 265.046875 L 141.007812 266.0625 C 140.984375 266.175781 140.957031 266.285156 140.929688 266.398438 C 140.546875 268.191406 139.929688 269.925781 139.179688 271.589844 C 138.421875 273.253906 137.519531 274.847656 136.523438 276.371094 C 135.519531 277.898438 134.414062 279.355469 133.214844 280.730469 C 132.613281 281.414062 131.992188 282.074219 131.375 282.75 C 130.753906 283.414062 130.105469 284.050781 129.476562 284.707031 C 124.3125 289.839844 118.5 294.292969 112.3125 298.109375 C 106.117188 301.921875 99.535156 305.097656 92.726562 307.648438 C 85.914062 310.199219 78.863281 312.109375 71.691406 313.351562 C 64.523438 314.589844 57.230469 315.144531 49.949219 314.90625 C 42.671875 314.628906 35.386719 313.492188 28.480469 311.054688 C 25.03125 309.84375 21.695312 308.28125 18.589844 306.328125 C 15.484375 304.382812 12.613281 302.03125 10.152344 299.296875 C 7.699219 296.558594 5.652344 293.441406 4.148438 290.082031 C 2.632812 286.734375 1.605469 283.171875 1.03125 279.546875 C 0.457031 275.921875 0.328125 272.230469 0.605469 268.574219 C 0.886719 264.917969 1.558594 261.289062 2.644531 257.785156 C 4.800781 250.769531 8.363281 244.253906 12.710938 238.398438 C 17.066406 232.523438 22.210938 227.289062 27.753906 222.566406 C 30.539062 220.222656 33.390625 217.941406 36.382812 215.867188 L 37.5 215.078125 C 37.871094 214.8125 38.257812 214.574219 38.636719 214.320312 L 40.921875 212.816406 C 42.480469 211.875 44.011719 210.890625 45.617188 210.015625 L 46.804688 209.347656 L 47.398438 209.007812 L 48.007812 208.695312 L 50.433594 207.433594 C 51.246094 207.023438 52.074219 206.640625 52.898438 206.246094 L 54.128906 205.664062 L 56.636719 204.570312 C 57.054688 204.386719 57.46875 204.199219 57.898438 204.039062 L 60.4375 203.03125 C 61.285156 202.699219 62.148438 202.410156 63.003906 202.097656 L 64.292969 201.640625 L 65.59375 201.21875 L 66.898438 200.800781 C 67.328125 200.664062 67.761719 200.519531 68.203125 200.402344 L 70.832031 199.65625 C 71.710938 199.40625 72.59375 199.203125 73.476562 198.976562 C 73.921875 198.867188 74.359375 198.753906 74.804688 198.648438 L 76.140625 198.359375 L 77.476562 198.066406 L 78.144531 197.921875 L 78.816406 197.792969 L 81.5 197.296875 C 82.398438 197.140625 83.300781 197.011719 84.199219 196.871094 C 84.648438 196.804688 85.097656 196.722656 85.550781 196.664062 L 86.902344 196.496094 C 88.707031 196.25 90.523438 196.09375 92.335938 195.914062 C 94.152344 195.789062 95.964844 195.636719 97.785156 195.582031 C 99.601562 195.480469 101.421875 195.476562 103.242188 195.445312 C 105.0625 195.460938 106.882812 195.453125 108.703125 195.53125 C 110.519531 195.574219 112.332031 195.695312 114.152344 195.792969 C 115.964844 195.941406 117.78125 196.0625 119.585938 196.261719 C 121.398438 196.429688 123.199219 196.660156 125.007812 196.882812 C 125.90625 197.003906 126.808594 197.136719 127.707031 197.261719 L 129.054688 197.460938 L 130.402344 197.679688 C 133.992188 198.246094 137.5625 198.941406 141.113281 199.703125 C 144.671875 200.457031 148.199219 201.339844 151.710938 202.265625 C 165.757812 206.003906 179.445312 210.964844 192.820312 216.605469 C 206.199219 222.25 219.261719 228.613281 232.105469 235.359375 C 238.53125 238.730469 244.90625 242.195312 251.242188 245.71875 C 257.582031 249.246094 263.910156 252.78125 270.355469 256.078125 C 273.582031 257.714844 276.839844 259.292969 280.140625 260.773438 C 280.96875 261.136719 281.792969 261.515625 282.625 261.867188 L 285.125 262.914062 L 287.648438 263.914062 C 288.488281 264.25 289.34375 264.539062 290.191406 264.859375 C 293.589844 266.089844 297.039062 267.183594 300.539062 268.085938 C 304.042969 268.96875 307.59375 269.664062 311.171875 270.160156 C 312.066406 270.265625 312.960938 270.402344 313.859375 270.488281 L 316.5625 270.726562 C 318.363281 270.828125 320.164062 270.933594 321.976562 270.914062 C 325.585938 270.90625 329.199219 270.660156 332.765625 270.09375 C 336.332031 269.503906 339.84375 268.613281 343.246094 267.398438 L 344.515625 266.929688 C 344.9375 266.769531 345.367188 266.621094 345.777344 266.4375 C 346.195312 266.257812 346.609375 266.089844 347.019531 265.898438 L 348.25 265.324219 C 349.871094 264.53125 351.449219 263.648438 352.976562 262.679688 C 359.070312 258.804688 364.359375 253.605469 368.160156 247.441406 C 369.109375 245.898438 369.976562 244.308594 370.714844 242.652344 C 371.457031 241 372.09375 239.300781 372.605469 237.566406 C 373.125 235.828125 373.503906 234.054688 373.746094 232.257812 C 373.992188 230.460938 374.101562 228.648438 374.074219 226.832031 C 374.15625 230.457031 373.703125 234.101562 372.691406 237.589844 C 372.191406 239.335938 371.566406 241.046875 370.835938 242.707031 C 370.113281 244.375 369.25 245.976562 368.3125 247.53125 C 364.539062 253.75 359.253906 259.007812 353.144531 262.945312 C 351.613281 263.925781 350.03125 264.824219 348.398438 265.636719 L 347.171875 266.222656 C 346.757812 266.417969 346.335938 266.589844 345.921875 266.773438 C 345.503906 266.964844 345.078125 267.113281 344.652344 267.277344 L 343.378906 267.761719 C 339.957031 269.003906 336.425781 269.921875 332.839844 270.535156 C 329.25 271.128906 325.613281 271.398438 321.976562 271.429688 C 320.15625 271.460938 318.339844 271.367188 316.523438 271.277344 L 313.804688 271.050781 C 312.898438 270.96875 312 270.839844 311.097656 270.734375 C 307.488281 270.261719 303.914062 269.570312 300.382812 268.691406 C 296.859375 267.800781 293.386719 266.710938 289.964844 265.488281 C 289.113281 265.175781 288.25 264.882812 287.40625 264.546875 L 284.867188 263.554688 L 282.351562 262.507812 C 281.511719 262.160156 280.6875 261.785156 279.851562 261.421875 C 276.53125 259.949219 273.257812 258.378906 270.015625 256.746094 C 263.539062 253.464844 257.191406 249.949219 250.839844 246.449219 C 244.492188 242.953125 238.113281 239.515625 231.683594 236.167969 C 225.257812 232.824219 218.78125 229.578125 212.238281 226.464844 C 208.964844 224.914062 205.683594 223.382812 202.378906 221.898438 C 200.730469 221.148438 199.066406 220.429688 197.414062 219.699219 C 195.75 218.984375 194.09375 218.257812 192.417969 217.566406 C 179.066406 211.964844 165.414062 207.046875 151.421875 203.351562 C 137.445312 199.664062 123.109375 197.15625 108.664062 196.691406 C 106.859375 196.613281 105.050781 196.625 103.25 196.609375 C 101.445312 196.640625 99.636719 196.648438 97.835938 196.746094 C 96.035156 196.804688 94.234375 196.957031 92.433594 197.082031 C 90.636719 197.257812 88.839844 197.417969 87.054688 197.664062 L 85.710938 197.832031 C 85.261719 197.886719 84.820312 197.964844 84.371094 198.035156 C 83.480469 198.175781 82.589844 198.300781 81.699219 198.457031 L 78.375 199.078125 L 77.71875 199.222656 L 76.394531 199.511719 L 75.074219 199.800781 C 74.632812 199.902344 74.199219 200.015625 73.761719 200.125 C 72.890625 200.351562 72.011719 200.554688 71.140625 200.796875 L 68.539062 201.539062 C 68.109375 201.65625 67.675781 201.796875 67.246094 201.9375 L 65.960938 202.347656 L 64.675781 202.761719 L 63.398438 203.21875 C 62.554688 203.523438 61.699219 203.808594 60.859375 204.140625 L 58.34375 205.132812 C 57.921875 205.292969 57.511719 205.476562 57.097656 205.65625 L 55.859375 206.195312 L 54.617188 206.734375 L 53.394531 207.3125 C 52.585938 207.703125 51.761719 208.078125 50.960938 208.484375 L 48.5625 209.734375 L 47.960938 210.042969 L 46.191406 211.039062 C 44.609375 211.898438 43.089844 212.875 41.542969 213.804688 L 39.285156 215.289062 C 38.910156 215.539062 38.527344 215.78125 38.160156 216.039062 L 37.054688 216.820312 C 34.089844 218.871094 31.269531 221.125 28.507812 223.449219 C 23.011719 228.125 17.925781 233.300781 13.628906 239.082031 C 9.339844 244.851562 5.84375 251.25 3.71875 258.113281 C 2.648438 261.539062 1.984375 265.085938 1.703125 268.660156 C 1.425781 272.230469 1.542969 275.839844 2.097656 279.375 C 2.652344 282.914062 3.644531 286.386719 5.113281 289.648438 C 6.570312 292.914062 8.546875 295.933594 10.925781 298.601562 C 13.308594 301.269531 16.101562 303.558594 19.128906 305.46875 C 22.160156 307.382812 25.429688 308.914062 28.8125 310.125 C 35.589844 312.542969 42.785156 313.699219 49.980469 314 C 57.195312 314.257812 64.433594 313.734375 71.554688 312.53125 C 78.675781 311.328125 85.6875 309.457031 92.46875 306.949219 C 99.242188 304.4375 105.792969 301.308594 111.964844 297.539062 C 118.132812 293.773438 123.914062 289.359375 129.066406 284.292969 C 129.703125 283.648438 130.347656 283.019531 130.96875 282.363281 C 131.578125 281.699219 132.207031 281.046875 132.808594 280.371094 C 133.996094 279.023438 135.097656 277.589844 136.09375 276.089844 C 137.089844 274.589844 137.988281 273.019531 138.742188 271.390625 C 139.496094 269.757812 140.109375 268.054688 140.496094 266.304688 C 140.519531 266.195312 140.550781 266.085938 140.570312 265.976562 L 140.738281 264.980469 C 140.785156 264.761719 140.792969 264.539062 140.820312 264.316406 L 140.882812 263.648438 C 140.90625 263.203125 140.90625 262.753906 140.914062 262.308594 C 140.898438 262.085938 140.894531 261.867188 140.871094 261.648438 C 140.832031 261.429688 140.824219 261.207031 140.765625 260.996094 C 140.589844 260.132812 140.261719 259.300781 139.761719 258.574219 C 139.265625 257.847656 138.632812 257.210938 137.914062 256.6875 C 137.199219 256.15625 136.410156 255.726562 135.585938 255.375 C 134.765625 255.019531 133.910156 254.734375 133.042969 254.507812 C 131.300781 254.058594 129.507812 253.804688 127.707031 253.691406 C 120.488281 253.277344 113.195312 254.171875 106.261719 256.261719 C 99.332031 258.34375 92.746094 261.625 86.941406 265.976562 " fill-opacity="1" fill-rule="nonzero"/></g><g clip-path="url(#460182ea46)"><path fill="#000000" d="M 86.933594 274.449219 C 92.78125 270.125 99.417969 266.875 106.402344 264.832031 C 113.390625 262.796875 120.738281 261.964844 128.015625 262.472656 C 129.835938 262.621094 131.644531 262.988281 133.375 263.601562 C 135.101562 264.210938 136.757812 265.074219 138.15625 266.292969 C 139.554688 267.5 140.621094 269.132812 141.058594 270.953125 C 141.488281 272.777344 141.292969 274.683594 140.792969 276.449219 C 140.296875 278.226562 139.527344 279.90625 138.640625 281.503906 C 137.746094 283.105469 136.730469 284.628906 135.652344 286.101562 C 133.496094 289.046875 131.074219 291.800781 128.4375 294.324219 C 123.15625 299.378906 117.105469 303.550781 110.785156 307.167969 C 107.621094 308.980469 104.378906 310.644531 101.09375 312.210938 C 97.796875 313.78125 94.425781 315.179688 91 316.425781 C 77.28125 321.363281 62.566406 323.652344 47.980469 322.75 C 44.332031 322.503906 40.699219 322.035156 37.113281 321.296875 C 33.535156 320.550781 30 319.53125 26.59375 318.183594 C 23.179688 316.839844 19.90625 315.125 16.878906 313.03125 C 13.859375 310.9375 11.09375 308.445312 8.777344 305.570312 C 7.621094 304.132812 6.570312 302.605469 5.65625 301.003906 C 4.742188 299.398438 3.960938 297.71875 3.300781 296.003906 C 1.980469 292.5625 1.136719 288.949219 0.703125 285.296875 C 0.269531 281.648438 0.246094 277.953125 0.601562 274.296875 C 0.957031 270.640625 1.710938 267.011719 2.859375 263.523438 C 5.132812 256.554688 8.4375 249.933594 12.578125 243.894531 C 14.648438 240.871094 16.929688 237.992188 19.414062 235.300781 C 20.65625 233.953125 21.949219 232.652344 23.289062 231.402344 C 23.625 231.09375 23.957031 230.78125 24.304688 230.476562 C 24.644531 230.171875 24.988281 229.867188 25.335938 229.570312 L 26.371094 228.675781 L 27.425781 227.800781 C 33.050781 223.140625 39.117188 219 45.554688 215.535156 C 51.988281 212.066406 58.785156 209.269531 65.792969 207.195312 C 72.804688 205.117188 80.015625 203.761719 87.285156 203.054688 C 94.554688 202.34375 101.878906 202.277344 109.160156 202.730469 C 116.441406 203.179688 123.6875 204.148438 130.847656 205.511719 C 138.007812 206.878906 145.089844 208.632812 152.074219 210.695312 C 166.054688 214.820312 179.652344 220.121094 192.933594 226.070312 C 199.574219 229.050781 206.140625 232.195312 212.636719 235.46875 C 219.132812 238.75 225.5625 242.152344 231.945312 245.644531 C 244.738281 252.574219 257.160156 260.15625 270.105469 266.738281 C 273.339844 268.386719 276.605469 269.964844 279.914062 271.464844 C 283.214844 272.964844 286.570312 274.355469 289.957031 275.644531 C 296.734375 278.234375 303.710938 280.3125 310.855469 281.539062 C 314.425781 282.15625 318.035156 282.550781 321.652344 282.683594 C 325.269531 282.804688 328.898438 282.675781 332.492188 282.191406 C 336.078125 281.714844 339.632812 280.925781 343.058594 279.757812 C 346.496094 278.613281 349.800781 277.078125 352.894531 275.1875 C 359.074219 271.414062 364.453125 266.277344 368.371094 260.160156 C 370.324219 257.105469 371.910156 253.804688 372.984375 250.335938 C 374.066406 246.867188 374.628906 243.234375 374.617188 239.597656 C 374.664062 243.234375 374.128906 246.875 373.070312 250.359375 C 372.019531 253.847656 370.460938 257.175781 368.523438 260.261719 C 366.578125 263.339844 364.257812 266.183594 361.652344 268.730469 C 359.050781 271.28125 356.160156 273.535156 353.058594 275.453125 C 349.957031 277.375 346.636719 278.945312 343.183594 280.117188 C 339.738281 281.3125 336.164062 282.136719 332.550781 282.636719 C 328.9375 283.144531 325.28125 283.296875 321.636719 283.203125 C 317.992188 283.089844 314.355469 282.714844 310.757812 282.113281 C 303.5625 280.914062 296.535156 278.84375 289.722656 276.273438 C 286.3125 274.992188 282.941406 273.605469 279.621094 272.113281 C 276.300781 270.621094 273.015625 269.046875 269.765625 267.414062 C 256.757812 260.855469 244.308594 253.316406 231.507812 246.449219 C 225.117188 242.984375 218.6875 239.609375 212.1875 236.363281 C 205.695312 233.109375 199.140625 229.980469 192.507812 227.019531 C 179.25 221.109375 165.683594 215.855469 151.757812 211.773438 C 137.847656 207.703125 123.554688 204.78125 109.085938 203.886719 C 101.863281 203.445312 94.597656 203.515625 87.398438 204.222656 C 80.203125 204.929688 73.0625 206.277344 66.128906 208.332031 C 59.199219 210.382812 52.476562 213.144531 46.113281 216.566406 C 39.742188 219.988281 33.738281 224.085938 28.160156 228.695312 L 27.121094 229.5625 L 26.09375 230.445312 C 25.75 230.742188 25.410156 231.039062 25.074219 231.335938 C 24.738281 231.636719 24.40625 231.945312 24.074219 232.25 C 22.757812 233.480469 21.480469 234.757812 20.261719 236.082031 C 17.8125 238.730469 15.5625 241.566406 13.523438 244.542969 C 9.441406 250.492188 6.179688 257.015625 3.925781 263.871094 C 2.792969 267.285156 2.054688 270.820312 1.699219 274.402344 C 1.34375 277.984375 1.359375 281.601562 1.773438 285.175781 C 2.191406 288.742188 3.007812 292.269531 4.289062 295.621094 C 4.929688 297.296875 5.6875 298.925781 6.570312 300.484375 C 7.453125 302.042969 8.464844 303.515625 9.589844 304.917969 C 11.828125 307.714844 14.515625 310.144531 17.457031 312.195312 C 20.410156 314.246094 23.613281 315.925781 26.960938 317.261719 C 30.304688 318.597656 33.78125 319.613281 37.3125 320.363281 C 40.84375 321.105469 44.433594 321.585938 48.039062 321.839844 C 55.257812 322.316406 62.53125 321.996094 69.695312 320.957031 C 76.863281 319.921875 83.921875 318.144531 90.746094 315.71875 C 94.15625 314.496094 97.511719 313.117188 100.789062 311.574219 C 104.066406 310.023438 107.300781 308.375 110.457031 306.589844 C 116.753906 303.015625 122.777344 298.886719 128.039062 293.902344 C 130.667969 291.417969 133.082031 288.703125 135.238281 285.796875 C 136.320312 284.339844 137.332031 282.839844 138.222656 281.269531 C 139.105469 279.699219 139.871094 278.050781 140.363281 276.328125 C 140.859375 274.609375 141.050781 272.78125 140.652344 271.046875 C 140.25 269.316406 139.246094 267.753906 137.90625 266.578125 C 136.5625 265.394531 134.949219 264.535156 133.257812 263.925781 C 131.5625 263.316406 129.78125 262.945312 127.984375 262.78125 C 120.761719 262.238281 113.433594 263.019531 106.449219 265.003906 C 99.46875 266.984375 92.816406 270.171875 86.933594 274.449219 " fill-opacity="1" fill-rule="nonzero"/></g><path fill="#000000" d="M 115.617188 288.9375 C 115.402344 287.984375 115.183594 287.035156 114.960938 286.09375 C 113.367188 279.308594 111.730469 272.535156 109.988281 265.78125 C 108.285156 259.171875 106.460938 252.574219 104.929688 245.925781 C 108.429688 244.78125 112.59375 245.417969 115.925781 246.816406 C 123.945312 250.175781 128.214844 259.3125 127.882812 268.214844 C 127.488281 278.925781 121.363281 287.636719 115.617188 288.9375 Z M 99.988281 290.492188 C 91.402344 287.738281 83.691406 280.34375 82.320312 268.722656 C 81.21875 259.378906 87.664062 248.296875 93.210938 241.179688 C 95.105469 238.753906 97.066406 236.375 99.042969 234.015625 C 99.664062 237.199219 100.375 240.367188 101.074219 243.535156 C 99.019531 244.140625 97.035156 245.027344 95.175781 246.214844 C 90.882812 248.957031 86.570312 254.085938 87.15625 259.445312 C 87.625 263.765625 92.738281 266.058594 96.824219 266.179688 C 103.839844 266.390625 99.320312 263.046875 98.222656 257.554688 C 97.648438 254.675781 98.359375 251.394531 100.703125 248.691406 C 101.085938 248.25 101.5 247.863281 101.9375 247.515625 C 102.113281 248.359375 102.285156 249.199219 102.453125 250.046875 C 103.761719 256.652344 105.054688 263.269531 106.386719 269.875 C 107.734375 276.539062 109.285156 283.15625 110.683594 289.808594 C 110.769531 290.21875 110.855469 290.628906 110.9375 291.042969 C 108.65625 291.902344 104.417969 291.914062 99.988281 290.492188 Z M 98.976562 160.621094 C 104.6875 160.320312 108.121094 169.101562 110.324219 177.84375 C 113.609375 190.90625 111.527344 207.671875 106.917969 216.230469 C 105.175781 219.476562 103.105469 222.554688 100.855469 225.515625 C 99.84375 219.015625 91.109375 161.039062 98.976562 160.621094 Z M 116.695312 294.414062 C 117.476562 294.113281 118.25 293.785156 119.011719 293.421875 C 130.320312 288.035156 137.621094 276.097656 136.046875 263.136719 C 134.660156 251.714844 124.023438 239.882812 104.230469 242.828125 C 103.335938 238.828125 102.480469 234.816406 101.746094 230.78125 C 103.644531 228.511719 105.539062 226.234375 107.371094 223.910156 C 116.507812 212.335938 122.207031 200.210938 118.453125 176.839844 C 116.859375 166.902344 110.335938 152.328125 99.859375 153.339844 C 90.789062 154.214844 91.242188 168.53125 91.460938 174.925781 C 91.84375 186.097656 99.101562 227.773438 98.136719 228.933594 C 95.648438 231.945312 93.007812 234.839844 90.367188 237.664062 C 83.152344 245.390625 74.484375 254.433594 72.871094 265.347656 C 71.609375 273.867188 75.222656 284.035156 82.164062 289.226562 C 90.546875 295.492188 101.628906 298.042969 111.8125 295.855469 C 112.121094 295.789062 113.234375 303.148438 113.257812 303.65625 C 113.53125 308.847656 112.625 315.519531 105.570312 315.265625 C 103.550781 315.191406 99.742188 313.425781 99.339844 316.371094 C 99.074219 318.34375 103.886719 325.199219 110.582031 324.265625 C 124.378906 322.351562 116.9375 294.320312 116.695312 294.414062 " fill-opacity="1" fill-rule="nonzero"/><path fill="#000000" d="M 159.691406 212.132812 C 159.59375 213.558594 157.726562 214.585938 155.527344 214.433594 C 153.320312 214.277344 151.617188 212.996094 151.71875 211.570312 C 151.820312 210.148438 153.6875 209.117188 155.886719 209.273438 C 158.089844 209.425781 159.796875 210.707031 159.691406 212.132812 " fill-opacity="1" fill-rule="nonzero"/><path fill="#000000" d="M 159.691406 212.175781 L 161.0625 192.707031 L 159.945312 192.628906 L 158.574219 212.101562 L 159.691406 212.175781 " fill-opacity="1" fill-rule="nonzero"/><path fill="#000000" d="M 173.546875 208.886719 C 173.449219 210.3125 171.582031 211.339844 169.378906 211.1875 C 167.175781 211.03125 165.472656 209.75 165.570312 208.324219 C 165.671875 206.902344 167.539062 205.871094 169.742188 206.023438 C 171.945312 206.179688 173.648438 207.460938 173.546875 208.886719 " fill-opacity="1" fill-rule="nonzero"/><path fill="#000000" d="M 173.53125 209.144531 L 174.898438 189.671875 L 173.75 190.074219 L 172.414062 209.066406 L 173.53125 209.144531 " fill-opacity="1" fill-rule="nonzero"/><path fill="#000000" d="M 159.441406 199.808594 L 174.394531 196.855469 L 174.574219 194.300781 L 159.617188 197.257812 L 159.441406 199.808594 " fill-opacity="1" fill-rule="nonzero"/><path fill="#000000" d="M 159.945312 192.628906 L 159.730469 195.660156 L 174.6875 192.707031 L 174.898438 189.671875 L 159.945312 192.628906 " fill-opacity="1" fill-rule="nonzero"/><path fill="#000000" d="M 220.8125 242.5 C 220.476562 244.140625 218.152344 245.046875 215.617188 244.523438 C 213.085938 244 211.304688 242.25 211.640625 240.609375 C 211.980469 238.96875 214.308594 238.066406 216.839844 238.585938 C 219.375 239.109375 221.152344 240.863281 220.8125 242.5 " fill-opacity="1" fill-rule="nonzero"/><path fill="#000000" d="M 220.804688 242.554688 L 225.417969 220.164062 L 224.136719 219.898438 L 219.519531 242.289062 L 220.804688 242.554688 " fill-opacity="1" fill-rule="nonzero"/><path fill="#000000" d="M 237.3125 241.328125 C 236.972656 242.964844 234.644531 243.871094 232.113281 243.351562 C 229.582031 242.824219 227.800781 241.074219 228.136719 239.433594 C 228.476562 237.792969 230.804688 236.890625 233.335938 237.414062 C 235.871094 237.9375 237.648438 239.6875 237.3125 241.328125 " fill-opacity="1" fill-rule="nonzero"/><path fill="#000000" d="M 237.339844 241.183594 L 241.957031 218.796875 L 240.558594 219.082031 L 236.054688 240.917969 L 237.339844 241.183594 " fill-opacity="1" fill-rule="nonzero"/><path fill="#000000" d="M 240.253906 227.050781 L 222.433594 228.160156 L 224.136719 219.898438 L 241.957031 218.796875 L 240.253906 227.050781 " fill-opacity="1" fill-rule="nonzero"/><path fill="#000000" d="M 240.253906 227.050781 L 222.433594 228.160156 L 224.136719 219.898438 L 241.957031 218.796875 L 240.253906 227.050781 " fill-opacity="1" fill-rule="nonzero"/><path fill="#000000" d="M 280.363281 250.578125 C 279.777344 253.378906 275.792969 254.914062 271.460938 254.003906 C 267.136719 253.097656 264.101562 250.089844 264.6875 247.289062 C 265.273438 244.488281 269.257812 242.953125 273.589844 243.859375 C 277.917969 244.769531 280.949219 247.773438 280.363281 250.578125 " fill-opacity="1" fill-rule="nonzero"/><path fill="#000000" d="M 280.410156 250.363281 L 286.648438 220.371094 L 286.144531 212.054688 L 278.214844 249.902344 L 280.410156 250.363281 " fill-opacity="1" fill-rule="nonzero"/><path fill="#000000" d="M 286.03125 213.980469 C 286.03125 213.980469 286.539062 220.496094 290.101562 228.132812 C 294.148438 236.800781 285.03125 241.144531 285.03125 241.144531 C 285.03125 241.144531 290.003906 230.457031 284.742188 223.882812 C 286.527344 217.214844 286.03125 213.980469 286.03125 213.980469 " fill-opacity="1" fill-rule="nonzero"/><path fill="#000000" d="M 77.824219 199.53125 L 75.03125 178.871094 L 73.320312 175.410156 L 76.578125 199.699219 L 77.824219 199.53125 " fill-opacity="1" fill-rule="nonzero"/><path fill="#000000" d="M 73.617188 201.976562 C 71.835938 202.214844 70.277344 201.550781 70.136719 200.492188 C 69.996094 199.433594 71.320312 198.382812 73.101562 198.140625 C 74.878906 197.90625 76.433594 198.570312 76.574219 199.625 C 76.71875 200.6875 75.390625 201.738281 73.617188 201.976562 Z M 72.96875 197.171875 C 70.507812 197.503906 68.683594 199.066406 68.898438 200.660156 C 69.113281 202.253906 71.28125 203.273438 73.742188 202.945312 C 76.207031 202.617188 78.03125 201.054688 77.816406 199.460938 C 77.601562 197.867188 75.433594 196.84375 72.96875 197.171875 " fill-opacity="1" fill-rule="nonzero"/><path fill="#000000" d="M 73.390625 175.402344 C 73.390625 175.402344 74.878906 178.757812 78.195312 182.132812 C 81.960938 185.964844 77.949219 189.972656 77.949219 189.972656 C 77.949219 189.972656 78.582031 183.382812 74.558594 180.882812 C 74.257812 177.019531 73.390625 175.402344 73.390625 175.402344 " fill-opacity="1" fill-rule="nonzero"/><path fill="#000000" d="M 146.660156 195.011719 C 146.796875 196.871094 144.578125 198.546875 141.703125 198.753906 C 138.835938 198.960938 136.398438 197.625 136.261719 195.765625 C 136.128906 193.910156 138.347656 192.234375 141.21875 192.027344 C 144.089844 191.816406 146.527344 193.15625 146.660156 195.011719 " fill-opacity="1" fill-rule="nonzero"/><path fill="#000000" d="M 146.667969 195.09375 L 144.828125 170.0625 L 143.398438 170.097656 L 145.214844 195.199219 L 146.667969 195.09375 " fill-opacity="1" fill-rule="nonzero"/><path fill="#000000" d="M 13.523438 314.121094 C 13.382812 316.152344 15.808594 317.976562 18.945312 318.195312 C 22.082031 318.417969 24.742188 316.949219 24.886719 314.921875 C 25.027344 312.890625 22.601562 311.066406 19.464844 310.84375 C 16.328125 310.625 13.667969 312.089844 13.523438 314.121094 " fill-opacity="1" fill-rule="nonzero"/><path fill="#000000" d="M 232.054688 200.601562 L 233.167969 200.175781 L 233.757812 189.707031 L 232.695312 189.207031 L 232.054688 200.601562 " fill-opacity="1" fill-rule="nonzero"/><path fill="#000000" d="M 227.6875 202.261719 L 229.574219 201.542969 L 230.332031 188.09375 L 228.53125 187.238281 L 227.6875 202.261719 " fill-opacity="1" fill-rule="nonzero"/><path fill="#000000" d="M 223.371094 196.835938 L 223.226562 199.4375 L 234.882812 197.339844 L 234.953125 196.082031 L 223.371094 196.835938 " fill-opacity="1" fill-rule="nonzero"/><path fill="#000000" d="M 223.773438 189.734375 L 223.625 192.339844 L 235.078125 193.910156 L 235.148438 192.652344 L 223.773438 189.734375 " fill-opacity="1" fill-rule="nonzero"/><path fill="#000000" d="M 29.039062 221.71875 C 29.027344 223.203125 27.160156 224.390625 24.867188 224.371094 C 22.574219 224.351562 20.730469 223.128906 20.738281 221.648438 C 20.753906 220.164062 22.621094 218.976562 24.914062 219 C 27.203125 219.015625 29.054688 220.234375 29.039062 221.71875 " fill-opacity="1" fill-rule="nonzero"/><path fill="#000000" d="M 29.039062 221.765625 L 29.210938 201.507812 L 28.050781 201.496094 L 27.878906 221.757812 L 29.039062 221.765625 " fill-opacity="1" fill-rule="nonzero"/><path fill="#000000" d="M 43.183594 217.46875 C 43.171875 218.949219 41.304688 220.136719 39.011719 220.117188 C 36.71875 220.097656 34.871094 218.878906 34.886719 217.394531 C 34.898438 215.914062 36.765625 214.726562 39.058594 214.746094 C 41.347656 214.765625 43.195312 215.984375 43.183594 217.46875 " fill-opacity="1" fill-rule="nonzero"/><path fill="#000000" d="M 43.183594 217.734375 L 43.355469 197.472656 L 42.1875 197.964844 L 42.023438 217.722656 L 43.183594 217.734375 " fill-opacity="1" fill-rule="nonzero"/><path fill="#000000" d="M 27.984375 208.96875 L 43.289062 204.949219 L 43.3125 202.289062 L 28.007812 206.3125 L 27.984375 208.96875 " fill-opacity="1" fill-rule="nonzero"/><path fill="#000000" d="M 28.050781 201.496094 L 28.019531 204.652344 L 43.324219 200.632812 L 43.355469 197.472656 L 28.050781 201.496094 " fill-opacity="1" fill-rule="nonzero"/><path fill="#000000" d="M 58.007812 213.578125 C 57.992188 215.058594 56.125 216.246094 53.835938 216.226562 C 51.542969 216.207031 49.695312 214.988281 49.707031 213.503906 C 49.71875 212.023438 51.585938 210.835938 53.878906 210.855469 C 56.171875 210.875 58.019531 212.09375 58.007812 213.578125 " fill-opacity="1" fill-rule="nonzero"/><path fill="#000000" d="M 58.003906 213.84375 L 58.175781 193.582031 L 57.007812 194.070312 L 56.839844 213.832031 L 58.003906 213.84375 " fill-opacity="1" fill-rule="nonzero"/><path fill="#000000" d="M 42.871094 197.605469 L 42.84375 200.761719 L 58.148438 196.742188 L 58.175781 193.582031 L 42.871094 197.605469 " fill-opacity="1" fill-rule="nonzero"/><path fill="#000000" d="M 124.34375 184.0625 C 124.214844 185.859375 126.363281 187.476562 129.140625 187.671875 C 131.917969 187.867188 134.273438 186.570312 134.398438 184.773438 C 134.527344 182.976562 132.378906 181.359375 129.601562 181.164062 C 126.820312 180.96875 124.46875 182.265625 124.34375 184.0625 " fill-opacity="1" fill-rule="nonzero"/><path fill="#000000" d="M 182.324219 232.109375 C 182.40625 233.847656 180.300781 235.359375 177.617188 235.488281 C 174.9375 235.613281 172.695312 234.3125 172.613281 232.578125 C 172.53125 230.839844 174.636719 229.332031 177.316406 229.203125 C 180 229.074219 182.242188 230.378906 182.324219 232.109375 " fill-opacity="1" fill-rule="nonzero"/><path fill="#000000" d="M 182.328125 232.167969 L 181.191406 208.457031 L 179.832031 208.523438 L 180.964844 232.230469 L 182.328125 232.167969 " fill-opacity="1" fill-rule="nonzero"/><path fill="#000000" d="M 198.589844 226.203125 C 198.671875 227.941406 196.5625 229.449219 193.882812 229.578125 C 191.199219 229.710938 188.960938 228.40625 188.875 226.671875 C 188.792969 224.933594 190.898438 223.421875 193.582031 223.296875 C 196.261719 223.167969 198.503906 224.46875 198.589844 226.203125 " fill-opacity="1" fill-rule="nonzero"/><path fill="#000000" d="M 198.601562 226.515625 L 197.464844 202.808594 L 196.132812 203.457031 L 197.242188 226.582031 L 198.601562 226.515625 " fill-opacity="1" fill-rule="nonzero"/><path fill="#000000" d="M 179.832031 208.523438 L 180.007812 212.214844 L 197.640625 206.5 L 197.464844 202.808594 L 179.832031 208.523438 " fill-opacity="1" fill-rule="nonzero"/><path fill="#000000" d="M 35.589844 282.175781 C 35.589844 282.175781 40.789062 289.984375 39.132812 291.898438 C 37.476562 293.8125 36.683594 293.078125 36.613281 296.457031 C 36.546875 299.832031 39.179688 303.234375 39.179688 303.234375 L 38.316406 303.511719 C 38.316406 303.511719 35.667969 297.914062 33.324219 299.945312 C 30.984375 301.980469 32.902344 306.007812 32.902344 306.007812 C 32.902344 306.007812 29.253906 302.535156 30.140625 299.554688 C 31.027344 296.570312 34.175781 297.46875 34.175781 297.46875 C 34.175781 297.46875 31.886719 293.925781 32.824219 292.636719 C 33.761719 291.351562 36.03125 290.328125 36.160156 288.476562 C 36.292969 286.621094 34.375 282.597656 34.375 282.597656 L 35.589844 282.175781 " fill-opacity="1" fill-rule="nonzero"/><path fill="#000000" d="M 199.011719 192.929688 L 197.953125 188.730469 L 201.003906 190.046875 L 201.933594 194.1875 Z M 199.683594 201.519531 L 201.078125 202.121094 L 199.769531 196.0625 L 204.21875 197.980469 L 201.050781 182.234375 L 199.402344 181.519531 L 200.539062 187.273438 L 196.132812 185.609375 L 199.683594 201.519531 " fill-opacity="1" fill-rule="nonzero"/><path fill="#000000" d="M 217.804688 174.6875 C 217.628906 177.878906 217.429688 181.058594 217.144531 184.230469 C 216.292969 193.742188 214.390625 202.960938 211.078125 211.941406 C 209.976562 214.921875 208.804688 217.882812 207.644531 220.855469 C 206.5 223.832031 205.3125 226.796875 204.230469 229.804688 C 203.6875 231.308594 203.128906 232.800781 202.679688 234.382812 C 202.277344 235.964844 202.003906 237.574219 201.898438 239.195312 C 201.726562 242.429688 202.148438 245.710938 203.367188 248.671875 C 202.503906 245.597656 202.328125 242.378906 202.71875 239.269531 C 202.914062 237.710938 203.261719 236.179688 203.730469 234.691406 C 204.238281 233.234375 204.839844 231.75 205.449219 230.277344 L 209.113281 221.445312 C 210.320312 218.488281 211.511719 215.519531 212.640625 212.527344 C 213.195312 211.027344 213.742188 209.523438 214.269531 208.011719 C 215.925781 203.222656 216.855469 198.84375 217.378906 193.871094 C 217.714844 190.675781 217.882812 187.472656 217.957031 184.273438 C 218.015625 181.078125 217.996094 177.878906 217.804688 174.6875 " fill-opacity="1" fill-rule="nonzero"/><path fill="#000000" d="M 212.46875 173.894531 C 212.292969 177.082031 212.09375 180.265625 211.808594 183.4375 C 211.539062 186.613281 211.195312 189.773438 210.753906 192.914062 C 210.285156 196.046875 209.761719 199.179688 208.890625 202.1875 C 208.644531 202.929688 208.445312 203.671875 208.183594 204.421875 C 207.921875 205.171875 207.664062 205.925781 207.390625 206.671875 C 206.859375 208.171875 206.304688 209.660156 205.742188 211.144531 C 204.640625 214.132812 203.46875 217.09375 202.308594 220.058594 C 201.164062 223.035156 199.976562 226.003906 198.894531 229.011719 C 198.355469 230.519531 197.796875 232.003906 197.339844 233.589844 C 196.941406 235.171875 196.667969 236.78125 196.5625 238.402344 C 196.394531 241.636719 196.8125 244.914062 198.035156 247.878906 C 197.167969 244.804688 196.992188 241.585938 197.382812 238.472656 C 197.578125 236.917969 197.925781 235.386719 198.394531 233.898438 C 198.90625 232.4375 199.507812 230.953125 200.113281 229.484375 L 203.777344 220.648438 C 204.988281 217.695312 206.171875 214.726562 207.304688 211.734375 C 207.863281 210.230469 208.40625 208.726562 208.929688 207.214844 C 209.199219 206.460938 209.453125 205.699219 209.707031 204.945312 C 209.96875 204.1875 210.183594 203.386719 210.414062 202.605469 C 210.617188 201.820312 210.78125 201.027344 210.964844 200.238281 C 211.125 199.449219 211.265625 198.648438 211.410156 197.859375 C 211.542969 197.0625 211.652344 196.265625 211.769531 195.472656 C 211.875 194.671875 211.949219 193.875 212.046875 193.074219 C 212.382812 189.882812 212.546875 186.683594 212.625 183.480469 C 212.683594 180.285156 212.664062 177.082031 212.46875 173.894531 " fill-opacity="1" fill-rule="nonzero"/><path fill="#000000" d="M 46.339844 324.5625 L 48.574219 307.996094 L 47.636719 307.824219 L 45.378906 324.429688 L 46.339844 324.5625 " fill-opacity="1" fill-rule="nonzero"/><g clip-path="url(#64141a24f4)"><path fill="#000000" d="M 42.707031 325.515625 C 41.335938 325.328125 40.316406 324.519531 40.425781 323.699219 C 40.539062 322.882812 41.738281 322.375 43.109375 322.558594 C 44.480469 322.75 45.503906 323.558594 45.390625 324.378906 C 45.28125 325.195312 44.078125 325.703125 42.707031 325.515625 Z M 43.214844 321.8125 C 41.316406 321.554688 39.636719 322.339844 39.472656 323.570312 C 39.304688 324.800781 40.707031 326.003906 42.609375 326.265625 C 44.507812 326.523438 46.179688 325.734375 46.347656 324.507812 C 46.515625 323.277344 45.113281 322.074219 43.214844 321.8125 " fill-opacity="1" fill-rule="nonzero"/></g><path fill="#000000" d="M 57.355469 314.257812 C 57.261719 315.59375 58.855469 316.796875 60.921875 316.941406 C 62.988281 317.085938 64.738281 316.121094 64.832031 314.785156 C 64.925781 313.445312 63.332031 312.246094 61.261719 312.101562 C 59.199219 311.953125 57.449219 312.921875 57.355469 314.257812 " fill-opacity="1" fill-rule="nonzero"/><path fill="#000000" d="M 68.78125 305.753906 C 68.691406 307.035156 70.222656 308.1875 72.203125 308.328125 C 74.179688 308.464844 75.859375 307.539062 75.949219 306.257812 C 76.039062 304.976562 74.507812 303.828125 72.527344 303.6875 C 70.546875 303.546875 68.867188 304.472656 68.78125 305.753906 " fill-opacity="1" fill-rule="nonzero"/><path fill="#000000" d="M 9.722656 303.289062 C 9.464844 304.550781 7.671875 305.246094 5.726562 304.84375 C 3.773438 304.445312 2.40625 303.09375 2.667969 301.832031 C 2.929688 300.570312 4.71875 299.875 6.664062 300.277344 C 8.617188 300.679688 9.984375 302.03125 9.722656 303.289062 " fill-opacity="1" fill-rule="nonzero"/><path fill="#000000" d="M 9.714844 303.332031 L 13.269531 286.097656 L 12.28125 285.898438 L 8.726562 303.128906 L 9.714844 303.332031 " fill-opacity="1" fill-rule="nonzero"/><path fill="#000000" d="M 22.417969 302.386719 C 22.160156 303.648438 20.371094 304.34375 18.421875 303.941406 C 16.46875 303.539062 15.101562 302.191406 15.363281 300.929688 C 15.621094 299.667969 17.414062 298.972656 19.359375 299.375 C 21.3125 299.773438 22.679688 301.125 22.417969 302.386719 " fill-opacity="1" fill-rule="nonzero"/><path fill="#000000" d="M 22.441406 302.277344 L 25.996094 285.042969 L 24.917969 285.265625 L 21.453125 302.070312 L 22.441406 302.277344 " fill-opacity="1" fill-rule="nonzero"/><path fill="#000000" d="M 24.683594 291.398438 L 10.972656 292.253906 L 12.28125 285.898438 L 25.996094 285.042969 L 24.683594 291.398438 " fill-opacity="1" fill-rule="nonzero"/><path fill="#000000" d="M 24.683594 291.398438 L 10.972656 292.253906 L 12.28125 285.898438 L 25.996094 285.042969 L 24.683594 291.398438 " fill-opacity="1" fill-rule="nonzero"/><path fill="#000000" d="M 80.671875 321.21875 C 80.5625 322.757812 78.550781 323.867188 76.179688 323.699219 C 73.804688 323.53125 71.96875 322.148438 72.078125 320.617188 C 72.183594 319.078125 74.199219 317.96875 76.570312 318.136719 C 78.945312 318.304688 80.78125 319.6875 80.671875 321.21875 " fill-opacity="1" fill-rule="nonzero"/><path fill="#000000" d="M 80.667969 321.269531 L 82.144531 300.285156 L 80.941406 300.203125 L 79.464844 321.1875 L 80.667969 321.269531 " fill-opacity="1" fill-rule="nonzero"/><path fill="#000000" d="M 95.601562 317.722656 C 95.492188 319.257812 93.480469 320.367188 91.109375 320.203125 C 88.734375 320.035156 86.898438 318.652344 87.007812 317.117188 C 87.117188 315.578125 89.128906 314.46875 91.5 314.636719 C 93.875 314.808594 95.710938 316.1875 95.601562 317.722656 " fill-opacity="1" fill-rule="nonzero"/><path fill="#000000" d="M 95.582031 317.996094 L 97.058594 297.015625 L 95.820312 297.445312 L 94.378906 317.914062 L 95.582031 317.996094 " fill-opacity="1" fill-rule="nonzero"/><path fill="#000000" d="M 80.398438 307.945312 L 96.511719 304.757812 L 96.707031 302.003906 L 80.589844 305.191406 L 80.398438 307.945312 " fill-opacity="1" fill-rule="nonzero"/><path fill="#000000" d="M 80.941406 300.203125 L 80.710938 303.46875 L 96.828125 300.28125 L 97.058594 297.015625 L 80.941406 300.203125 " fill-opacity="1" fill-rule="nonzero"/><path fill="#000000" d="M 264.070312 208.050781 C 264.070312 208.050781 270.363281 217.5 268.355469 219.820312 C 266.351562 222.132812 265.390625 221.246094 265.308594 225.335938 C 265.226562 229.425781 268.414062 233.539062 268.414062 233.539062 L 267.371094 233.875 C 267.371094 233.875 264.160156 227.097656 261.328125 229.558594 C 258.496094 232.023438 260.8125 236.890625 260.8125 236.890625 C 260.8125 236.890625 256.402344 232.691406 257.476562 229.082031 C 258.550781 225.472656 262.359375 226.5625 262.359375 226.5625 C 262.359375 226.5625 259.59375 222.273438 260.726562 220.714844 C 261.855469 219.152344 264.605469 217.914062 264.761719 215.675781 C 264.917969 213.433594 262.601562 208.5625 262.601562 208.5625 L 264.070312 208.050781 " fill-opacity="1" fill-rule="nonzero"/><path fill="#000000" d="M 5.03125 238.019531 L 3.972656 233.824219 L 7.023438 235.136719 L 7.953125 239.28125 Z M 5.699219 246.613281 L 7.097656 247.214844 L 5.789062 241.152344 L 10.238281 243.070312 L 7.070312 227.324219 L 5.417969 226.613281 L 6.5625 232.367188 L 2.152344 230.703125 L 5.699219 246.613281 " fill-opacity="1" fill-rule="nonzero"/><path fill="#000000" d="M 60.285156 278.359375 C 54.144531 279.128906 54.5 284.234375 54.5 284.234375 C 54.417969 284.488281 54.378906 284.761719 54.378906 285.042969 C 54.378906 286.527344 55.582031 287.726562 57.0625 287.726562 C 58.546875 287.726562 59.746094 286.527344 59.746094 285.042969 C 59.746094 283.558594 58.546875 282.351562 57.0625 282.351562 C 57.753906 277.671875 65.425781 277.824219 64.734375 285.042969 C 64.046875 292.257812 54.914062 297.863281 54.492188 298.015625 C 54.078125 298.167969 54.492188 299.015625 54.492188 299.015625 C 57.839844 298.863281 67.039062 292.105469 68.113281 287.34375 C 69.1875 282.582031 66.425781 277.59375 60.285156 278.359375 " fill-opacity="1" fill-rule="nonzero"/><path fill="#000000" d="M 72.105469 282.160156 C 72.105469 282.863281 71.535156 283.425781 70.839844 283.425781 C 70.136719 283.425781 69.570312 282.863281 69.570312 282.160156 C 69.570312 281.460938 70.136719 280.894531 70.839844 280.894531 C 71.535156 280.894531 72.105469 281.460938 72.105469 282.160156 " fill-opacity="1" fill-rule="nonzero"/><path fill="#000000" d="M 72.105469 289.074219 C 72.105469 289.773438 71.535156 290.339844 70.839844 290.339844 C 70.136719 290.339844 69.570312 289.773438 69.570312 289.074219 C 69.570312 288.371094 70.136719 287.804688 70.839844 287.804688 C 71.535156 287.804688 72.105469 288.371094 72.105469 289.074219 " fill-opacity="1" fill-rule="nonzero"/><path fill="#000000" d="M 338.285156 266.503906 L 326.050781 268.597656 L 326.050781 265.910156 L 338.285156 263.667969 Z M 338.285156 272.839844 L 326.050781 274.933594 L 326.050781 272.246094 L 338.285156 270.003906 Z M 324.21875 268.96875 L 311.984375 271.058594 L 311.984375 268.371094 L 324.21875 266.132812 Z M 324.21875 275.304688 L 311.984375 277.394531 L 311.984375 274.707031 L 324.21875 272.46875 Z M 310.453125 271.429688 L 298.222656 273.523438 L 298.222656 270.835938 L 310.453125 268.597656 Z M 310.453125 277.765625 L 298.222656 279.855469 L 298.222656 277.167969 L 310.453125 274.933594 Z M 346.578125 245.890625 C 348.441406 245.09375 349.617188 243.855469 349.40625 242.710938 C 349.117188 241.160156 346.402344 240.367188 343.339844 240.9375 C 340.28125 241.507812 338.035156 243.226562 338.320312 244.777344 C 338.40625 245.210938 338.6875 245.589844 339.109375 245.890625 L 337.542969 245.890625 L 337.542969 248.410156 L 338.734375 248.410156 L 338.734375 261.28125 L 325.871094 261.28125 L 325.871094 248.011719 L 336.082031 248.011719 L 336.082031 245.890625 L 325.605469 245.890625 L 325.605469 241.28125 C 326.640625 242.097656 328.613281 242.496094 330.804688 242.21875 C 332.589844 241.996094 334.117188 241.371094 335.0625 240.582031 L 336.21875 240.582031 L 336.21875 239.390625 L 335.957031 239.390625 C 336.039062 239.15625 336.070312 238.917969 336.042969 238.679688 C 335.84375 237.117188 333.179688 236.167969 330.09375 236.558594 C 327.472656 236.890625 325.394531 238.082031 324.945312 239.390625 L 322.160156 239.390625 L 322.160156 240.582031 L 324.675781 240.582031 L 324.675781 246.019531 L 322.6875 246.019531 L 322.6875 247.75 L 324.808594 247.75 L 324.808594 263.140625 L 311.8125 265.394531 L 311.8125 253.3125 C 312.917969 253.929688 314.667969 254.207031 316.589844 253.964844 C 319.675781 253.570312 322.015625 251.988281 321.820312 250.421875 C 321.625 248.859375 318.960938 247.910156 315.871094 248.300781 C 312.78125 248.691406 310.441406 250.277344 310.636719 251.839844 C 310.660156 252.035156 310.722656 252.214844 310.820312 252.390625 L 310.488281 252.390625 L 310.488281 265.394531 L 298.421875 267.914062 L 298.421875 261.34375 C 299.527344 261.90625 301.214844 262.152344 303.054688 261.921875 C 306.144531 261.53125 308.488281 259.945312 308.289062 258.382812 C 308.089844 256.820312 305.429688 255.871094 302.339844 256.261719 C 299.253906 256.652344 296.910156 258.238281 297.105469 259.800781 C 297.175781 260.347656 297.550781 260.816406 298.132812 261.175781 L 297.09375 261.28125 L 297.09375 282.910156 L 339.796875 274.949219 L 339.796875 248.144531 L 350.539062 248.144531 L 350.539062 245.890625 L 346.578125 245.890625 " fill-opacity="1" fill-rule="nonzero"/></svg>