<svg xmlns="http://www.w3.org/2000/svg" xmlns:xlink="http://www.w3.org/1999/xlink" width="350" zoomAndPan="magnify" viewBox="0 0 375 374.999991" height="350" preserveAspectRatio="xMidYMid meet" version="1.0"><defs><g/><clipPath id="e2de51407e"><path d="M 202.644531 98.195312 L 375 98.195312 L 375 313 L 202.644531 313 Z M 202.644531 98.195312 " clip-rule="nonzero"/></clipPath></defs><g clip-path="url(#e2de51407e)"><path fill="#000000" d="M 369.175781 249.554688 C 367.507812 252.789062 368.042969 256.5625 369.003906 259.910156 C 369.953125 263.207031 371.171875 266.382812 371.847656 269.753906 C 372.449219 272.765625 372.765625 275.839844 372.699219 278.914062 C 372.582031 284.785156 371.042969 290.683594 367.539062 295.464844 C 363.820312 300.535156 358.328125 304 352.671875 306.558594 C 346.828125 309.195312 340.273438 311.035156 333.828125 309.949219 C 332.066406 309.652344 330.410156 309.039062 328.691406 308.558594 C 326.636719 307.984375 324.722656 307.90625 322.640625 308.441406 C 319.207031 309.320312 316.070312 310.863281 312.535156 311.441406 C 309.160156 311.996094 305.734375 312.085938 302.320312 312.167969 C 298.335938 312.269531 294.351562 312.367188 290.367188 312.464844 C 286.382812 312.5625 282.398438 312.660156 278.417969 312.757812 C 275.535156 312.828125 272.019531 313.441406 269.246094 312.390625 C 268.234375 312.007812 267.480469 311.371094 266.945312 310.441406 C 266.75 310.109375 266.589844 309.566406 266.277344 309.324219 C 265.894531 309.027344 265.207031 308.941406 264.742188 308.914062 C 263.761719 308.851562 262.730469 309.160156 261.761719 309.304688 C 259.535156 309.644531 256.710938 309.71875 255.207031 307.695312 C 253.792969 305.796875 254.734375 303.269531 256.398438 301.867188 C 258.683594 299.941406 262 300.242188 264.78125 300.328125 C 268.566406 300.4375 272.355469 300.40625 276.136719 300.222656 C 277.21875 300.167969 278.300781 300.105469 279.378906 300.027344 C 279.917969 299.988281 280.460938 299.964844 281 299.902344 C 281.613281 299.992188 281.882812 299.6875 281.804688 298.992188 C 281.882812 298.710938 281.960938 298.4375 282.039062 298.15625 C 281.949219 297.488281 280.90625 296.476562 280.511719 295.929688 C 279.976562 295.1875 279.429688 294.449219 278.890625 293.710938 C 276.914062 291.007812 275.050781 288.265625 273.726562 285.179688 C 272.371094 282.011719 271.457031 278.6875 270.34375 275.433594 C 268.070312 268.796875 264.234375 263.167969 260.101562 257.59375 C 260.371094 265.03125 256.972656 271.988281 254.683594 278.917969 C 252.167969 286.53125 250.269531 294.355469 249.023438 302.28125 C 248.609375 304.902344 248.730469 308.410156 247.015625 310.609375 C 245.574219 312.457031 243.132812 312.71875 240.953125 312.648438 C 237.085938 312.519531 230.4375 311.703125 231.167969 306.308594 C 231.429688 304.359375 232.703125 303.492188 234.558594 303.324219 C 237.960938 303.011719 237.996094 299.480469 237.691406 296.769531 C 236.90625 289.789062 236.683594 282.96875 237.773438 275.996094 C 238.867188 269.007812 240.972656 262.230469 242.269531 255.28125 C 242.933594 251.734375 243.46875 248.078125 243.007812 244.46875 C 242.542969 240.824219 240.847656 237.542969 239.3125 234.261719 C 233.792969 222.476562 232.636719 209.359375 235.847656 196.777344 C 235.871094 196.675781 235.929688 196.613281 236.003906 196.578125 C 234.78125 192.902344 231.941406 190.058594 229.738281 186.941406 C 227.445312 183.695312 225.488281 180.21875 223.839844 176.609375 C 220.878906 170.140625 218.890625 163.265625 217.480469 156.304688 C 216.792969 152.929688 216.242188 149.527344 215.78125 146.113281 C 215.253906 142.203125 215.070312 138.207031 214.367188 134.328125 C 214.003906 132.324219 213.082031 130.515625 212.679688 128.542969 C 212.324219 126.792969 212.929688 124.980469 212.429688 123.257812 C 211.894531 121.398438 210.328125 120.070312 209.070312 118.6875 C 207.828125 117.316406 206.742188 115.816406 205.730469 114.261719 C 204.777344 112.792969 203.445312 111.164062 203.003906 109.453125 C 202.839844 108.832031 202.898438 108.273438 203.070312 107.664062 C 203.175781 107.296875 203.363281 106.9375 203.425781 106.558594 C 203.566406 105.679688 203.285156 105.148438 203.121094 104.367188 C 202.644531 102.078125 204.664062 100.097656 206.945312 100.527344 C 206.953125 100.53125 206.964844 100.53125 206.972656 100.535156 C 207.160156 99.144531 208.328125 98.195312 209.769531 98.203125 C 211.832031 98.214844 212.933594 99.84375 213.96875 101.367188 C 215.125 103.070312 217.101562 103.898438 218.296875 105.617188 C 219.472656 107.304688 220.121094 109.277344 220.707031 111.226562 C 221.4375 113.660156 222.234375 115.953125 223.464844 118.183594 C 224.515625 120.089844 225.503906 121.984375 226.289062 124.015625 C 228.933594 130.851562 230.933594 137.988281 232.414062 145.199219 C 232.425781 145.214844 232.433594 145.234375 232.441406 145.253906 C 233.234375 148.003906 233.90625 150.785156 234.640625 153.558594 C 235.324219 156.136719 236.304688 158.460938 238.601562 159.992188 C 240.363281 161.171875 242.40625 161.835938 244.320312 162.71875 C 245.84375 163.417969 247.140625 164.265625 248.3125 165.375 C 248.023438 163.375 247.722656 161.378906 247.453125 159.371094 C 247.199219 157.496094 247.589844 156.351562 248.746094 154.878906 C 249.792969 153.546875 250.929688 152.199219 252.519531 151.511719 C 254.523438 150.636719 256.808594 151.023438 258.828125 150.21875 C 260.765625 149.453125 262.324219 148.046875 264.402344 147.597656 C 266.46875 147.148438 268.59375 147.386719 270.6875 147.328125 C 271.664062 147.296875 272.714844 147.265625 273.636719 146.910156 C 275.195312 146.300781 275.378906 144.59375 275.761719 143.175781 C 276.394531 140.855469 277.035156 138.539062 277.6875 136.230469 C 277.652344 136.222656 277.609375 136.21875 277.570312 136.21875 C 277.535156 136.273438 277.449219 136.222656 277.480469 136.164062 C 277.726562 135.722656 278.207031 135.652344 278.625 135.941406 C 279.484375 136.546875 279.363281 138.664062 279.496094 139.578125 C 280.011719 143.089844 280.527344 146.601562 281.015625 150.121094 C 282.957031 148.027344 285.160156 145.648438 287.75 144.4375 C 288.589844 144.046875 289.804688 143.585938 290.730469 143.960938 C 291.675781 144.339844 291.648438 145.195312 291.695312 146.09375 C 292.023438 152.394531 292.347656 158.777344 292.3125 165.085938 C 292.300781 167.953125 291.914062 170.722656 291.105469 173.476562 C 290.300781 176.214844 289.425781 179.117188 288.078125 181.640625 C 287.421875 182.871094 286.515625 183.9375 285.84375 185.15625 C 285.140625 186.421875 284.886719 187.78125 284.636719 189.1875 C 284.394531 190.574219 284.132812 191.914062 283.492188 193.179688 C 282.839844 194.464844 281.960938 195.636719 281.652344 197.074219 C 281.015625 200.082031 282.59375 203.117188 284.152344 205.582031 C 285.828125 208.238281 287.730469 210.761719 289.734375 213.175781 C 289.84375 213.308594 289.796875 213.46875 289.695312 213.554688 C 293.238281 216.304688 297.417969 218.089844 301.082031 220.660156 C 304.683594 223.191406 307.421875 226.585938 309.789062 230.253906 C 312.488281 234.429688 314.9375 238.785156 317.335938 243.136719 C 318.605469 245.449219 319.847656 247.777344 321.0625 250.121094 C 321.332031 250.648438 321.613281 251.175781 321.902344 251.707031 C 321.9375 251.710938 321.972656 251.730469 322 251.769531 C 323.761719 254.839844 325.476562 257.921875 327.027344 261.105469 C 329.984375 267.195312 332.523438 273.597656 333.425781 280.347656 C 333.875 283.707031 333.875 287.09375 333.375 290.445312 C 332.933594 293.429688 331.925781 297.835938 335.238281 299.613281 C 337.9375 301.054688 341.777344 300.042969 344.53125 299.222656 C 347.378906 298.375 350.089844 297.070312 352.527344 295.367188 C 357.539062 291.863281 361.265625 286.5625 361.90625 280.386719 C 363.164062 268.355469 352.273438 251.5 364.324219 242.082031 C 366.207031 240.609375 368.574219 239.667969 370.992188 239.800781 C 372.953125 239.910156 375.148438 241.207031 374.324219 243.472656 C 373.40625 245.996094 370.402344 247.167969 369.175781 249.554688 Z M 369.175781 249.554688 " fill-opacity="1" fill-rule="nonzero"/></g><path fill="#000000" d="M 136.96875 50.15625 C 131.007812 48.503906 127.507812 42.320312 129.167969 36.378906 C 130 33.402344 128.253906 30.320312 125.269531 29.492188 C 122.28125 28.664062 119.1875 30.402344 118.355469 33.378906 L 100.496094 97.308594 C 97.8125 94.558594 94.394531 92.457031 90.429688 91.355469 C 78.460938 88.035156 66.019531 95.035156 62.6875 106.960938 C 59.355469 118.886719 66.378906 131.289062 78.34375 134.609375 C 90.308594 137.929688 102.75 130.929688 106.082031 119.003906 L 123.953125 55.035156 C 126.625 57.757812 130.019531 59.84375 133.957031 60.933594 C 139.917969 62.585938 143.421875 68.769531 141.757812 74.710938 C 140.925781 77.6875 142.671875 80.769531 145.660156 81.601562 C 148.644531 82.429688 151.738281 80.6875 152.570312 77.710938 C 155.894531 65.828125 148.894531 53.46875 136.96875 50.15625 Z M 136.96875 50.15625 " fill-opacity="1" fill-rule="nonzero"/><path fill="#000000" d="M 138.722656 102.0625 C 135.003906 103 131.210938 100.75 130.265625 97.042969 C 129.792969 95.1875 127.898438 94.0625 126.039062 94.53125 C 124.175781 95.003906 123.046875 96.890625 123.519531 98.746094 L 133.667969 138.632812 C 131.375 137.980469 128.886719 137.898438 126.410156 138.523438 C 118.945312 140.410156 114.414062 148 116.304688 155.4375 C 118.199219 162.878906 125.8125 167.394531 133.277344 165.507812 C 140.742188 163.621094 145.277344 156.03125 143.382812 148.59375 L 133.226562 108.679688 C 135.507812 109.324219 137.976562 109.402344 140.433594 108.785156 C 144.152344 107.84375 147.949219 110.09375 148.890625 113.800781 C 149.363281 115.660156 151.257812 116.785156 153.121094 116.3125 C 154.980469 115.839844 156.109375 113.953125 155.636719 112.097656 C 153.75 104.683594 146.164062 100.179688 138.722656 102.0625 Z M 138.722656 102.0625 " fill-opacity="1" fill-rule="nonzero"/><g fill="#ffd52b" fill-opacity="1"><g transform="translate(0.337141, 230.882972)"><g><path d="M 10.78125 -25.015625 L 10.78125 -2.90625 C 10.78125 -2.125 10.5 -1.441406 9.9375 -0.859375 C 9.382812 -0.285156 8.71875 0 7.9375 0 L 6.921875 0 C 6.140625 0 5.457031 -0.285156 4.875 -0.859375 C 4.300781 -1.441406 4.015625 -2.125 4.015625 -2.90625 L 4.015625 -34.234375 C 4.015625 -35.003906 4.300781 -35.675781 4.875 -36.25 C 5.457031 -36.832031 6.140625 -37.125 6.921875 -37.125 L 8.234375 -37.125 C 9.117188 -37.125 9.941406 -36.882812 10.703125 -36.40625 C 11.460938 -35.9375 12.046875 -35.3125 12.453125 -34.53125 L 22.171875 -15.3125 C 22.171875 -15.28125 22.1875 -15.265625 22.21875 -15.265625 C 22.257812 -15.265625 22.28125 -15.28125 22.28125 -15.3125 L 31.984375 -34.53125 C 32.390625 -35.3125 32.972656 -35.9375 33.734375 -36.40625 C 34.503906 -36.882812 35.332031 -37.125 36.21875 -37.125 L 37.734375 -37.125 C 38.515625 -37.125 39.191406 -36.832031 39.765625 -36.25 C 40.347656 -35.675781 40.640625 -35.003906 40.640625 -34.234375 L 40.640625 -2.90625 C 40.640625 -2.125 40.347656 -1.441406 39.765625 -0.859375 C 39.191406 -0.285156 38.515625 0 37.734375 0 L 36.515625 0 C 35.734375 0 35.0625 -0.285156 34.5 -0.859375 C 33.945312 -1.441406 33.671875 -2.125 33.671875 -2.90625 L 33.671875 -25.015625 C 33.671875 -25.054688 33.65625 -25.078125 33.625 -25.078125 C 33.550781 -25.078125 33.515625 -25.054688 33.515625 -25.015625 L 26.75 -11.90625 C 25.875 -10.175781 24.484375 -9.3125 22.578125 -9.3125 L 21.875 -9.3125 C 19.96875 -9.3125 18.578125 -10.175781 17.703125 -11.90625 L 10.9375 -25.015625 C 10.9375 -25.054688 10.898438 -25.078125 10.828125 -25.078125 C 10.796875 -25.078125 10.78125 -25.054688 10.78125 -25.015625 Z M 10.78125 -25.015625 "/></g></g></g><g fill="#ffd52b" fill-opacity="1"><g transform="translate(44.984651, 230.882972)"><g><path d="M 26.21875 -4.90625 C 26.78125 -4.34375 27.0625 -3.671875 27.0625 -2.890625 C 27.0625 -2.117188 26.78125 -1.441406 26.21875 -0.859375 C 25.65625 -0.285156 24.984375 0 24.203125 0 L 6.921875 0 C 6.140625 0 5.457031 -0.285156 4.875 -0.859375 C 4.300781 -1.441406 4.015625 -2.125 4.015625 -2.90625 L 4.015625 -34.234375 C 4.015625 -35.003906 4.300781 -35.675781 4.875 -36.25 C 5.457031 -36.832031 6.140625 -37.125 6.921875 -37.125 L 24.203125 -37.125 C 24.984375 -37.125 25.65625 -36.832031 26.21875 -36.25 C 26.78125 -35.675781 27.0625 -35 27.0625 -34.21875 C 27.0625 -33.445312 26.78125 -32.78125 26.21875 -32.21875 C 25.65625 -31.65625 24.984375 -31.375 24.203125 -31.375 L 11.59375 -31.375 C 11.289062 -31.375 11.140625 -31.222656 11.140625 -30.921875 L 11.140625 -22.734375 C 11.140625 -22.429688 11.289062 -22.28125 11.59375 -22.28125 L 23.34375 -22.28125 C 24.09375 -22.28125 24.726562 -22.015625 25.25 -21.484375 C 25.78125 -20.960938 26.046875 -20.3125 26.046875 -19.53125 C 26.046875 -18.78125 25.789062 -18.140625 25.28125 -17.609375 C 24.769531 -17.085938 24.125 -16.828125 23.34375 -16.828125 L 11.59375 -16.828125 C 11.289062 -16.828125 11.140625 -16.675781 11.140625 -16.375 L 11.140625 -6.203125 C 11.140625 -5.898438 11.289062 -5.75 11.59375 -5.75 L 24.203125 -5.75 C 24.984375 -5.75 25.65625 -5.46875 26.21875 -4.90625 Z M 26.21875 -4.90625 "/></g></g></g><g fill="#ffd52b" fill-opacity="1"><g transform="translate(75.546333, 230.882972)"><g><path d="M 27.765625 -3.046875 L 27.765625 -2.90625 C 27.765625 -2.125 27.476562 -1.441406 26.90625 -0.859375 C 26.332031 -0.285156 25.65625 0 24.875 0 L 6.921875 0 C 6.140625 0 5.457031 -0.285156 4.875 -0.859375 C 4.300781 -1.441406 4.015625 -2.125 4.015625 -2.90625 L 4.015625 -34.234375 C 4.015625 -35.003906 4.300781 -35.675781 4.875 -36.25 C 5.457031 -36.832031 6.140625 -37.125 6.921875 -37.125 L 8.5 -37.125 C 9.269531 -37.125 9.941406 -36.832031 10.515625 -36.25 C 11.097656 -35.675781 11.390625 -35.003906 11.390625 -34.234375 L 11.390625 -6.359375 C 11.390625 -6.054688 11.539062 -5.90625 11.84375 -5.90625 L 24.875 -5.90625 C 25.65625 -5.90625 26.332031 -5.625 26.90625 -5.0625 C 27.476562 -4.5 27.765625 -3.828125 27.765625 -3.046875 Z M 27.765625 -3.046875 "/></g></g></g><g fill="#ffd52b" fill-opacity="1"><g transform="translate(106.006318, 230.882972)"><g><path d="M 28.53125 -28.296875 C 26.5 -30.617188 23.753906 -31.78125 20.296875 -31.78125 C 16.835938 -31.78125 14.085938 -30.617188 12.046875 -28.296875 C 10.015625 -25.972656 9 -22.726562 9 -18.5625 C 9 -14.394531 10.015625 -11.148438 12.046875 -8.828125 C 14.085938 -6.503906 16.835938 -5.34375 20.296875 -5.34375 C 23.753906 -5.34375 26.5 -6.503906 28.53125 -8.828125 C 30.5625 -11.148438 31.578125 -14.394531 31.578125 -18.5625 C 31.578125 -22.726562 30.5625 -25.972656 28.53125 -28.296875 Z M 33.796875 -4.640625 C 30.421875 -1.203125 25.914062 0.515625 20.28125 0.515625 C 14.65625 0.515625 10.15625 -1.203125 6.78125 -4.640625 C 3.414062 -8.085938 1.734375 -12.726562 1.734375 -18.5625 C 1.734375 -24.394531 3.414062 -29.03125 6.78125 -32.46875 C 10.15625 -35.914062 14.65625 -37.640625 20.28125 -37.640625 C 25.914062 -37.640625 30.421875 -35.914062 33.796875 -32.46875 C 37.171875 -29.03125 38.859375 -24.394531 38.859375 -18.5625 C 38.859375 -12.726562 37.171875 -8.085938 33.796875 -4.640625 Z M 33.796875 -4.640625 "/></g></g></g><g fill="#ffd52b" fill-opacity="1"><g transform="translate(146.585725, 230.882972)"><g><path d="M 11.03125 -31.234375 L 11.03125 -5.90625 C 11.03125 -5.664062 11.164062 -5.507812 11.4375 -5.4375 C 12.53125 -5.269531 13.566406 -5.1875 14.546875 -5.1875 C 18.679688 -5.1875 21.773438 -6.320312 23.828125 -8.59375 C 25.878906 -10.863281 26.90625 -14.359375 26.90625 -19.078125 C 26.90625 -27.648438 22.785156 -31.9375 14.546875 -31.9375 C 13.566406 -31.9375 12.53125 -31.851562 11.4375 -31.6875 C 11.164062 -31.613281 11.03125 -31.460938 11.03125 -31.234375 Z M 33.671875 -19.078125 C 33.671875 -12.734375 31.984375 -7.878906 28.609375 -4.515625 C 25.234375 -1.160156 20.425781 0.515625 14.1875 0.515625 C 11.507812 0.515625 9.085938 0.394531 6.921875 0.15625 C 6.066406 0.0507812 5.367188 -0.3125 4.828125 -0.9375 C 4.285156 -1.5625 4.015625 -2.300781 4.015625 -3.15625 L 4.015625 -33.96875 C 4.015625 -34.820312 4.285156 -35.5625 4.828125 -36.1875 C 5.367188 -36.8125 6.066406 -37.175781 6.921875 -37.28125 C 9.085938 -37.519531 11.507812 -37.640625 14.1875 -37.640625 C 20.394531 -37.640625 25.191406 -36.019531 28.578125 -32.78125 C 31.972656 -29.539062 33.671875 -24.972656 33.671875 -19.078125 Z M 33.671875 -19.078125 "/></g></g></g><g fill="#ffd52b" fill-opacity="1"><g transform="translate(181.978292, 230.882972)"><g><path d="M 12.875 -2.90625 L 12.875 -14.296875 C 12.875 -14.566406 12.785156 -14.835938 12.609375 -15.109375 L 1.421875 -34.640625 C 1.085938 -35.179688 1.085938 -35.726562 1.421875 -36.28125 C 1.765625 -36.84375 2.257812 -37.125 2.90625 -37.125 L 5.34375 -37.125 C 7.238281 -37.125 8.628906 -36.257812 9.515625 -34.53125 L 16.578125 -20.546875 C 16.578125 -20.515625 16.59375 -20.5 16.625 -20.5 C 16.695312 -20.5 16.734375 -20.515625 16.734375 -20.546875 L 23.75 -34.53125 C 24.632812 -36.257812 26.023438 -37.125 27.921875 -37.125 L 30.15625 -37.125 C 30.800781 -37.125 31.289062 -36.84375 31.625 -36.28125 C 31.96875 -35.726562 31.972656 -35.179688 31.640625 -34.640625 L 20.453125 -15.109375 C 20.304688 -14.867188 20.234375 -14.597656 20.234375 -14.296875 L 20.234375 -2.90625 C 20.234375 -2.125 19.945312 -1.441406 19.375 -0.859375 C 18.800781 -0.285156 18.125 0 17.34375 0 L 15.71875 0 C 14.9375 0 14.265625 -0.285156 13.703125 -0.859375 C 13.148438 -1.441406 12.875 -2.125 12.875 -2.90625 Z M 12.875 -2.90625 "/></g></g></g><g fill="#ffd52b" fill-opacity="1"><g transform="translate(52.050163, 301.606757)"><g><path d="M 10.78125 -25.015625 L 10.78125 -2.90625 C 10.78125 -2.125 10.5 -1.441406 9.9375 -0.859375 C 9.382812 -0.285156 8.71875 0 7.9375 0 L 6.921875 0 C 6.140625 0 5.457031 -0.285156 4.875 -0.859375 C 4.300781 -1.441406 4.015625 -2.125 4.015625 -2.90625 L 4.015625 -34.234375 C 4.015625 -35.003906 4.300781 -35.675781 4.875 -36.25 C 5.457031 -36.832031 6.140625 -37.125 6.921875 -37.125 L 8.234375 -37.125 C 9.117188 -37.125 9.941406 -36.882812 10.703125 -36.40625 C 11.460938 -35.9375 12.046875 -35.3125 12.453125 -34.53125 L 22.171875 -15.3125 C 22.171875 -15.28125 22.1875 -15.265625 22.21875 -15.265625 C 22.257812 -15.265625 22.28125 -15.28125 22.28125 -15.3125 L 31.984375 -34.53125 C 32.390625 -35.3125 32.972656 -35.9375 33.734375 -36.40625 C 34.503906 -36.882812 35.332031 -37.125 36.21875 -37.125 L 37.734375 -37.125 C 38.515625 -37.125 39.191406 -36.832031 39.765625 -36.25 C 40.347656 -35.675781 40.640625 -35.003906 40.640625 -34.234375 L 40.640625 -2.90625 C 40.640625 -2.125 40.347656 -1.441406 39.765625 -0.859375 C 39.191406 -0.285156 38.515625 0 37.734375 0 L 36.515625 0 C 35.734375 0 35.0625 -0.285156 34.5 -0.859375 C 33.945312 -1.441406 33.671875 -2.125 33.671875 -2.90625 L 33.671875 -25.015625 C 33.671875 -25.054688 33.65625 -25.078125 33.625 -25.078125 C 33.550781 -25.078125 33.515625 -25.054688 33.515625 -25.015625 L 26.75 -11.90625 C 25.875 -10.175781 24.484375 -9.3125 22.578125 -9.3125 L 21.875 -9.3125 C 19.96875 -9.3125 18.578125 -10.175781 17.703125 -11.90625 L 10.9375 -25.015625 C 10.9375 -25.054688 10.898438 -25.078125 10.828125 -25.078125 C 10.796875 -25.078125 10.78125 -25.054688 10.78125 -25.015625 Z M 10.78125 -25.015625 "/></g></g></g><g fill="#ffd52b" fill-opacity="1"><g transform="translate(96.697672, 301.606757)"><g><path d="M 17.1875 -30.828125 L 12.40625 -14.796875 C 12.34375 -14.523438 12.460938 -14.390625 12.765625 -14.390625 L 21.71875 -14.390625 C 22.019531 -14.390625 22.140625 -14.523438 22.078125 -14.796875 L 17.296875 -30.828125 C 17.296875 -30.859375 17.273438 -30.875 17.234375 -30.875 C 17.203125 -30.875 17.1875 -30.859375 17.1875 -30.828125 Z M 10.578125 -8.546875 L 8.84375 -2.75 C 8.570312 -1.9375 8.097656 -1.273438 7.421875 -0.765625 C 6.742188 -0.253906 5.984375 0 5.140625 0 L 3.515625 0 C 2.796875 0 2.234375 -0.285156 1.828125 -0.859375 C 1.421875 -1.441406 1.335938 -2.070312 1.578125 -2.75 L 12.5625 -34.375 C 12.832031 -35.195312 13.320312 -35.859375 14.03125 -36.359375 C 14.75 -36.867188 15.546875 -37.125 16.421875 -37.125 L 18.265625 -37.125 C 19.140625 -37.125 19.929688 -36.867188 20.640625 -36.359375 C 21.359375 -35.859375 21.851562 -35.195312 22.125 -34.375 L 33.109375 -2.75 C 33.347656 -2.070312 33.265625 -1.441406 32.859375 -0.859375 C 32.453125 -0.285156 31.890625 0 31.171875 0 L 29.34375 0 C 28.5 0 27.738281 -0.253906 27.0625 -0.765625 C 26.382812 -1.273438 25.910156 -1.9375 25.640625 -2.75 L 23.90625 -8.546875 C 23.832031 -8.816406 23.644531 -8.953125 23.34375 -8.953125 L 11.140625 -8.953125 C 10.835938 -8.953125 10.648438 -8.816406 10.578125 -8.546875 Z M 10.578125 -8.546875 "/></g></g></g><g fill="#ffd52b" fill-opacity="1"><g transform="translate(131.378322, 301.606757)"><g><path d="M 11.03125 -31.328125 L 11.03125 -19.078125 C 11.03125 -18.835938 11.1875 -18.679688 11.5 -18.609375 C 12.78125 -18.441406 14.015625 -18.359375 15.203125 -18.359375 C 17.953125 -18.359375 20.046875 -18.957031 21.484375 -20.15625 C 22.929688 -21.363281 23.65625 -23.085938 23.65625 -25.328125 C 23.65625 -29.835938 20.835938 -32.09375 15.203125 -32.09375 C 14.015625 -32.09375 12.78125 -32.007812 11.5 -31.84375 C 11.1875 -31.769531 11.03125 -31.597656 11.03125 -31.328125 Z M 11.03125 -12.765625 L 11.03125 -2.90625 C 11.03125 -2.125 10.75 -1.441406 10.1875 -0.859375 C 9.632812 -0.285156 8.96875 0 8.1875 0 L 6.921875 0 C 6.140625 0 5.457031 -0.285156 4.875 -0.859375 C 4.300781 -1.441406 4.015625 -2.125 4.015625 -2.90625 L 4.015625 -33.96875 C 4.015625 -34.78125 4.285156 -35.507812 4.828125 -36.15625 C 5.367188 -36.800781 6.046875 -37.160156 6.859375 -37.234375 C 9.742188 -37.503906 12.523438 -37.640625 15.203125 -37.640625 C 20.285156 -37.640625 24.097656 -36.628906 26.640625 -34.609375 C 29.191406 -32.585938 30.46875 -29.664062 30.46875 -25.84375 C 30.46875 -21.601562 29.238281 -18.394531 26.78125 -16.21875 C 24.320312 -14.050781 20.6875 -12.96875 15.875 -12.96875 C 14.75 -12.96875 13.269531 -13.035156 11.4375 -13.171875 C 11.164062 -13.171875 11.03125 -13.035156 11.03125 -12.765625 Z M 11.03125 -12.765625 "/></g></g></g></svg>