<svg xmlns="http://www.w3.org/2000/svg" xmlns:xlink="http://www.w3.org/1999/xlink" width="200" zoomAndPan="magnify" viewBox="0 0 375 374.999991" height="200" preserveAspectRatio="xMidYMid meet" version="1.0"><defs><clipPath id="70ed9deee2"><path d="M 161.058594 87.582031 L 374.808594 87.582031 L 374.808594 354.582031 L 161.058594 354.582031 Z M 161.058594 87.582031 " clip-rule="nonzero"/></clipPath></defs><g clip-path="url(#70ed9deee2)"><path fill="#000000" d="M 367.410156 275.335938 C 365.347656 279.34375 366.011719 284.027344 367.203125 288.179688 C 368.378906 292.265625 369.886719 296.207031 370.722656 300.390625 C 371.46875 304.125 371.859375 307.9375 371.78125 311.75 C 371.632812 319.03125 369.726562 326.347656 365.386719 332.28125 C 360.777344 338.570312 353.972656 342.867188 346.964844 346.039062 C 339.71875 349.316406 331.601562 351.59375 323.613281 350.246094 C 321.429688 349.878906 319.375 349.117188 317.25 348.523438 C 314.703125 347.808594 312.332031 347.710938 309.753906 348.375 C 305.496094 349.46875 301.605469 351.378906 297.230469 352.097656 C 293.046875 352.785156 288.800781 352.898438 284.570312 353 C 279.632812 353.125 274.699219 353.246094 269.757812 353.367188 C 264.824219 353.488281 259.886719 353.613281 254.953125 353.734375 C 251.382812 353.820312 247.023438 354.578125 243.585938 353.273438 C 242.335938 352.800781 241.402344 352.007812 240.734375 350.859375 C 240.496094 350.445312 240.296875 349.773438 239.910156 349.472656 C 239.433594 349.105469 238.582031 348.996094 238.007812 348.960938 C 236.792969 348.886719 235.515625 349.265625 234.316406 349.449219 C 231.554688 349.867188 228.058594 349.960938 226.191406 347.449219 C 224.441406 345.097656 225.605469 341.960938 227.667969 340.222656 C 230.5 337.835938 234.609375 338.207031 238.054688 338.3125 C 242.742188 338.449219 247.441406 338.410156 252.128906 338.179688 C 253.46875 338.117188 254.808594 338.035156 256.144531 337.941406 C 256.8125 337.894531 257.484375 337.863281 258.152344 337.789062 C 258.910156 337.898438 259.246094 337.519531 259.148438 336.652344 C 259.246094 336.308594 259.34375 335.964844 259.4375 335.621094 C 259.328125 334.792969 258.035156 333.535156 257.546875 332.859375 C 256.886719 331.933594 256.207031 331.023438 255.539062 330.105469 C 253.089844 326.753906 250.777344 323.351562 249.140625 319.523438 C 247.457031 315.59375 246.328125 311.46875 244.945312 307.433594 C 242.128906 299.203125 237.378906 292.21875 232.257812 285.304688 C 232.59375 294.527344 228.378906 303.160156 225.542969 311.753906 C 222.425781 321.203125 220.074219 330.90625 218.527344 340.738281 C 218.015625 343.988281 218.167969 348.335938 216.042969 351.066406 C 214.257812 353.355469 211.230469 353.683594 208.527344 353.59375 C 203.738281 353.4375 195.5 352.421875 196.402344 345.734375 C 196.730469 343.316406 198.308594 342.238281 200.605469 342.03125 C 204.820312 341.640625 204.867188 337.261719 204.484375 333.902344 C 203.511719 325.238281 203.238281 316.78125 204.589844 308.132812 C 205.945312 299.460938 208.550781 291.054688 210.160156 282.4375 C 210.980469 278.035156 211.644531 273.5 211.074219 269.023438 C 210.5 264.5 208.398438 260.433594 206.496094 256.363281 C 199.65625 241.742188 198.226562 225.472656 202.203125 209.867188 C 202.230469 209.742188 202.304688 209.664062 202.394531 209.621094 C 200.882812 205.0625 197.363281 201.535156 194.632812 197.664062 C 191.792969 193.640625 189.363281 189.328125 187.320312 184.851562 C 183.65625 176.824219 181.191406 168.296875 179.441406 159.664062 C 178.59375 155.476562 177.910156 151.253906 177.339844 147.019531 C 176.6875 142.167969 176.460938 137.210938 175.585938 132.398438 C 175.132812 129.914062 173.992188 127.671875 173.496094 125.222656 C 173.050781 123.054688 173.804688 120.804688 173.1875 118.667969 C 172.519531 116.363281 170.582031 114.714844 169.023438 113 C 167.480469 111.296875 166.140625 109.4375 164.886719 107.511719 C 163.703125 105.6875 162.050781 103.667969 161.503906 101.546875 C 161.304688 100.777344 161.375 100.082031 161.585938 99.324219 C 161.71875 98.867188 161.953125 98.421875 162.027344 97.953125 C 162.199219 96.867188 161.851562 96.207031 161.652344 95.238281 C 161.0625 92.398438 163.5625 89.9375 166.390625 90.472656 C 166.402344 90.476562 166.410156 90.476562 166.421875 90.484375 C 166.65625 88.761719 168.101562 87.578125 169.890625 87.59375 C 172.445312 87.605469 173.8125 89.625 175.09375 91.515625 C 176.523438 93.628906 178.972656 94.65625 180.457031 96.789062 C 181.914062 98.878906 182.71875 101.328125 183.441406 103.746094 C 184.347656 106.761719 185.335938 109.609375 186.859375 112.375 C 188.160156 114.738281 189.386719 117.09375 190.359375 119.609375 C 193.632812 128.089844 196.117188 136.941406 197.949219 145.886719 C 197.960938 145.90625 197.972656 145.929688 197.980469 145.953125 C 198.964844 149.363281 199.796875 152.816406 200.707031 156.253906 C 201.550781 159.457031 202.769531 162.335938 205.613281 164.238281 C 207.800781 165.699219 210.328125 166.523438 212.699219 167.621094 C 214.589844 168.488281 216.195312 169.535156 217.652344 170.914062 C 217.289062 168.433594 216.914062 165.953125 216.585938 163.46875 C 216.269531 161.136719 216.753906 159.722656 218.183594 157.894531 C 219.484375 156.238281 220.890625 154.570312 222.863281 153.714844 C 225.34375 152.632812 228.175781 153.109375 230.679688 152.113281 C 233.078125 151.164062 235.007812 149.417969 237.585938 148.859375 C 240.144531 148.304688 242.777344 148.601562 245.375 148.527344 C 246.585938 148.488281 247.886719 148.449219 249.027344 148.007812 C 250.960938 147.253906 251.1875 145.132812 251.664062 143.378906 C 252.445312 140.5 253.238281 137.625 254.046875 134.757812 C 254.003906 134.753906 253.949219 134.75 253.902344 134.746094 C 253.859375 134.8125 253.75 134.753906 253.792969 134.679688 C 254.097656 134.132812 254.691406 134.042969 255.207031 134.402344 C 256.273438 135.152344 256.125 137.78125 256.292969 138.914062 C 256.925781 143.269531 257.566406 147.628906 258.171875 151.992188 C 260.578125 149.394531 263.308594 146.445312 266.515625 144.945312 C 267.558594 144.457031 269.0625 143.886719 270.207031 144.347656 C 271.382812 144.824219 271.347656 145.882812 271.40625 146.996094 C 271.808594 154.808594 272.214844 162.726562 272.171875 170.550781 C 272.15625 174.109375 271.679688 177.542969 270.675781 180.964844 C 269.675781 184.355469 268.59375 187.960938 266.921875 191.089844 C 266.109375 192.613281 264.984375 193.941406 264.152344 195.449219 C 263.285156 197.023438 262.964844 198.707031 262.660156 200.449219 C 262.359375 202.167969 262.035156 203.835938 261.242188 205.402344 C 260.433594 207 259.34375 208.449219 258.960938 210.230469 C 258.171875 213.964844 260.128906 217.730469 262.058594 220.785156 C 264.136719 224.082031 266.492188 227.210938 268.976562 230.207031 C 269.109375 230.371094 269.050781 230.570312 268.925781 230.675781 C 273.316406 234.089844 278.496094 236.304688 283.039062 239.492188 C 287.496094 242.628906 290.890625 246.839844 293.824219 251.390625 C 297.167969 256.574219 300.207031 261.972656 303.179688 267.371094 C 304.75 270.238281 306.289062 273.128906 307.792969 276.035156 C 308.128906 276.6875 308.480469 277.339844 308.835938 278 C 308.878906 278.003906 308.925781 278.027344 308.957031 278.082031 C 311.140625 281.886719 313.265625 285.710938 315.1875 289.660156 C 318.851562 297.210938 321.996094 305.160156 323.113281 313.527344 C 323.671875 317.695312 323.667969 321.894531 323.050781 326.054688 C 322.503906 329.757812 321.253906 335.222656 325.359375 337.425781 C 328.707031 339.214844 333.460938 337.960938 336.875 336.941406 C 340.402344 335.890625 343.765625 334.269531 346.78125 332.160156 C 352.996094 327.8125 357.609375 321.234375 358.40625 313.578125 C 359.964844 298.652344 346.472656 277.746094 361.402344 266.0625 C 363.734375 264.238281 366.671875 263.070312 369.664062 263.234375 C 372.097656 263.367188 374.816406 264.976562 373.792969 267.785156 C 372.65625 270.917969 368.933594 272.375 367.410156 275.335938 Z M 367.410156 275.335938 " fill-opacity="1" fill-rule="nonzero"/></g><path fill="#000000" d="M 96.261719 47.148438 C 88.867188 45.09375 84.523438 37.410156 86.582031 30.023438 C 87.617188 26.320312 85.449219 22.488281 81.746094 21.457031 C 78.042969 20.425781 74.203125 22.589844 73.171875 26.289062 L 51.019531 105.765625 C 47.691406 102.351562 43.453125 99.734375 38.535156 98.367188 C 23.691406 94.238281 8.257812 102.941406 4.125 117.765625 C -0.0078125 132.59375 8.707031 148.011719 23.542969 152.140625 C 38.382812 156.265625 53.816406 147.566406 57.949219 132.738281 L 80.117188 53.210938 C 83.425781 56.597656 87.636719 59.191406 92.523438 60.546875 C 99.917969 62.601562 104.261719 70.289062 102.199219 77.675781 C 101.167969 81.375 103.332031 85.207031 107.039062 86.238281 C 110.742188 87.269531 114.578125 85.105469 115.609375 81.40625 C 119.734375 66.632812 111.050781 51.265625 96.261719 47.148438 Z M 96.261719 47.148438 " fill-opacity="1" fill-rule="nonzero"/><path fill="#000000" d="M 98.433594 111.675781 C 93.820312 112.84375 89.113281 110.046875 87.945312 105.4375 C 87.359375 103.128906 85.007812 101.730469 82.699219 102.316406 C 80.390625 102.902344 78.992188 105.25 79.578125 107.554688 L 92.164062 157.144531 C 89.324219 156.328125 86.234375 156.230469 83.164062 157.003906 C 73.90625 159.351562 68.28125 168.785156 70.628906 178.035156 C 72.980469 187.285156 82.421875 192.898438 91.683594 190.554688 C 100.941406 188.207031 106.5625 178.773438 104.214844 169.523438 L 91.617188 119.902344 C 94.445312 120.707031 97.511719 120.804688 100.554688 120.03125 C 105.171875 118.863281 109.875 121.664062 111.046875 126.273438 C 111.632812 128.582031 113.980469 129.980469 116.289062 129.394531 C 118.601562 128.808594 120 126.460938 119.414062 124.152344 C 117.074219 114.933594 107.664062 109.339844 98.433594 111.675781 Z M 98.433594 111.675781 " fill-opacity="1" fill-rule="nonzero"/></svg>