<svg xmlns="http://www.w3.org/2000/svg" xmlns:xlink="http://www.w3.org/1999/xlink" width="100" zoomAndPan="magnify" viewBox="0 0 375 374.999991" height="100" preserveAspectRatio="xMidYMid meet" version="1.0"><defs><clipPath id="b50ba30539"><path d="M 114.503906 0 L 276.503906 0 L 276.503906 373 L 114.503906 373 Z M 114.503906 0 " clip-rule="nonzero"/></clipPath></defs><g clip-path="url(#b50ba30539)"><path fill="#000000" d="M 273.636719 210.503906 C 269.480469 196.941406 260.117188 185.1875 248.0625 177.234375 C 236.066406 169.140625 221.230469 165.265625 207.15625 165.535156 C 206.492188 165.554688 205.835938 165.632812 205.179688 165.664062 C 203.113281 156.96875 201.160156 148.273438 199.480469 139.554688 C 200.878906 138.542969 202.296875 137.550781 203.6875 136.476562 C 213.382812 129.09375 223.304688 119.890625 230.527344 108.257812 C 237.847656 96.699219 241.859375 83.15625 242.492188 70.351562 C 243.375 57.597656 242.246094 45.121094 238.117188 32.28125 C 236.011719 25.867188 233.214844 19.429688 228.066406 12.90625 C 225.410156 9.65625 222.121094 6.320312 216.875 3.511719 C 214.230469 2.132812 211.070312 0.9375 207.339844 0.464844 C 203.695312 -0.0078125 199.609375 0.359375 196.113281 1.542969 C 189.074219 3.976562 185.054688 8.246094 182.332031 11.789062 C 179.601562 15.457031 178.054688 18.96875 176.753906 22.316406 C 174.273438 28.988281 173.292969 35.210938 172.574219 41.292969 C 171.292969 53.398438 171.722656 64.894531 172.070312 76.292969 C 172.53125 87.691406 173.292969 99.03125 174.734375 110.238281 C 175.101562 113.390625 175.558594 116.523438 176.023438 119.65625 C 169.949219 124.230469 163.445312 128.914062 156.84375 134.101562 C 152.089844 137.898438 147.328125 142.03125 142.835938 146.683594 C 138.449219 151.234375 134.566406 155.808594 130.785156 160.976562 C 127.0625 166.121094 123.589844 171.792969 120.894531 177.949219 C 118.238281 184.097656 116.445312 190.671875 115.519531 197.097656 C 114.605469 203.566406 114.496094 209.574219 114.660156 215.695312 C 114.96875 222.144531 115.992188 228.59375 117.859375 234.777344 C 121.691406 247.167969 128.839844 258.425781 138.0625 267.378906 C 156.648438 285.378906 182.707031 294.414062 208.402344 292.878906 C 211.121094 292.683594 213.808594 292.316406 216.464844 291.867188 C 217.355469 295.878906 218.226562 299.902344 219.035156 303.898438 C 220.011719 309.171875 220.765625 314.457031 221.410156 319.699219 C 221.710938 322.324219 222.011719 324.953125 222.171875 327.597656 C 222.324219 330.199219 222.519531 332.902344 222.453125 335.171875 C 222.410156 339.898438 221.539062 344.441406 219.734375 348.335938 C 217.851562 352.136719 215.109375 355.429688 211.152344 357.355469 C 207.371094 359.390625 202.710938 360.1875 198.027344 359.84375 C 195.328125 359.613281 192.664062 359.078125 189.964844 358.25 C 198.199219 355.613281 204.144531 348.316406 204.144531 339.621094 C 204.144531 328.695312 194.820312 319.824219 183.382812 319.824219 C 171.945312 319.824219 162.570312 328.695312 162.570312 339.621094 C 162.570312 340.535156 162.679688 341.414062 162.863281 342.308594 C 162.863281 345.589844 163.539062 348.929688 164.933594 352.070312 C 167.527344 357.945312 172.3125 362.953125 177.921875 366.460938 C 189.199219 373.574219 204.484375 374.984375 217.535156 368.851562 C 223.964844 365.757812 229.394531 360.59375 232.769531 354.652344 C 236.15625 348.667969 237.703125 342.234375 238.296875 336 C 238.554688 332.792969 238.554688 329.996094 238.628906 327.113281 C 238.652344 324.207031 238.523438 321.394531 238.488281 318.5 C 238.210938 312.816406 237.800781 307.136719 237.136719 301.507812 C 236.546875 296.363281 235.847656 291.242188 235.015625 286.167969 C 238.566406 284.542969 242.039062 282.710938 245.351562 280.527344 C 256.371094 273.296875 265.613281 263.019531 270.894531 250.703125 C 273.570312 244.582031 275.335938 237.984375 275.839844 231.285156 C 276.484375 224.507812 275.722656 217.167969 273.632812 210.503906 Z M 193.644531 76.277344 C 194.019531 65.695312 195.570312 55.160156 198.277344 45.59375 C 199.589844 40.835938 201.339844 36.316406 203.273438 32.808594 C 203.4375 32.507812 203.609375 32.171875 203.792969 31.871094 C 205.40625 34.175781 206.996094 37.5 208.113281 41.082031 C 210.695312 49.296875 211.542969 59.121094 210.84375 68.28125 C 210.125 77.417969 207.855469 85.695312 203.316406 93.054688 C 200.984375 96.988281 197.964844 100.644531 194.492188 104.207031 C 193.695312 94.875 193.203125 85.578125 193.644531 76.277344 Z M 207.136719 277.976562 C 197.023438 278.847656 186.28125 276.929688 177.058594 272.785156 C 167.777344 268.546875 159.800781 262.066406 154.007812 254.351562 C 148.136719 246.679688 144.394531 237.839844 142.507812 228.894531 C 141.65625 224.410156 141.160156 219.878906 141.3125 215.34375 C 141.410156 210.46875 141.730469 205.464844 142.601562 201.03125 C 144.269531 192.148438 148.050781 184.609375 154.136719 176.976562 C 157.125 173.242188 160.738281 169.441406 164.285156 165.957031 C 167.75 162.621094 171.628906 159.414062 175.84375 156.269531 C 177.703125 154.867188 179.660156 153.511719 181.636719 152.113281 C 182.820312 157.980469 184.011719 163.8125 185.300781 169.648438 C 177.992188 172.445312 171.292969 177.125 166.339844 182.96875 C 161.371094 188.824219 158.179688 195.703125 156.609375 202.484375 C 155.835938 205.90625 155.523438 209.335938 155.394531 212.71875 C 155.394531 214.386719 155.523438 216.066406 155.578125 217.734375 C 155.726562 219.671875 155.941406 221.554688 156.480469 223.40625 C 158.359375 230.757812 162.769531 236.753906 168.347656 240.765625 C 173.886719 244.738281 180.648438 247.222656 187.355469 246.480469 C 183.460938 241.359375 180.945312 236.78125 179.121094 232.339844 C 177.207031 227.949219 176.324219 223.746094 176.238281 220.269531 C 176.203125 219.367188 176.257812 218.527344 176.335938 217.734375 L 176.925781 214.480469 C 177.386719 212.382812 177.988281 210.371094 178.804688 208.507812 C 180.429688 204.765625 182.773438 201.652344 185.453125 199.296875 C 187.222656 197.691406 189.277344 196.457031 191.480469 195.496094 C 198.445312 223.007812 206.519531 250.066406 213.058594 277.003906 C 211.101562 277.433594 209.125 277.800781 207.132812 277.972656 Z M 247.828125 243.289062 C 245.828125 251.8125 241.074219 260.195312 233.820312 266.523438 C 233.132812 267.160156 232.378906 267.738281 231.648438 268.320312 C 229.359375 257.234375 226.605469 246.4375 223.746094 235.742188 C 220.113281 221.460938 216.082031 207.328125 212.285156 193.261719 C 219.335938 194.113281 225.960938 196.265625 231.570312 199.914062 C 238.570312 204.445312 243.882812 211.183594 246.730469 218.640625 C 248.117188 222.449219 249.039062 226.164062 249.074219 230.371094 C 249.214844 234.65625 248.988281 239.003906 247.828125 243.289062 Z M 247.828125 243.289062 " fill-opacity="1" fill-rule="evenodd"/></g></svg>